<svg width="94" height="283" viewBox="0 0 94 283" fill="none" xmlns="http://www.w3.org/2000/svg">
<path d="M18.5 281.5C8.8802 266 31.3284 170.572 49.5 147C53.1624 142.249 60.5 123.5 42.5706 114.5C24.5 109 8.50008 114.5 3.07061 126C-2.49984 142 2.50005 148.5 14.5001 159C30 169.5 51 173.5 69 164.5C103 142.5 72 14 82.5 8.5" stroke="#BBBBBB" stroke-width="1.5" stroke-miterlimit="10" stroke-linecap="round" stroke-dasharray="5 5"/>
<path d="M83.0669 2.85491C83.0102 3.12172 83.1681 3.41162 83.4188 3.50193L90.3494 5.99591L86.0008 11.6532C85.8433 11.8577 85.8801 12.1815 86.0828 12.3757C86.2854 12.57 86.579 12.5603 86.735 12.3583L91.5297 6.12022C91.6264 5.99401 91.653 5.81474 91.5993 5.64488C91.5456 5.47503 91.4188 5.33927 91.2644 5.28315L83.6226 2.5328C83.5326 2.50092 83.4438 2.49871 83.3632 2.52129C83.2195 2.56225 83.1033 2.68333 83.0669 2.85491Z" fill="#BBBBBB"/>
</svg>
