<svg width="295" height="322" viewBox="0 0 295 322" fill="none" xmlns="http://www.w3.org/2000/svg">
<path d="M56.2733 320.349C45.7992 303.472 183.5 146.349 160 92.3489C140.5 37.8489 114 29.3489 61 37.8489C22 42.8489 4.9445 73.7797 1.49994 105.349C-0.0555661 132.28 34.9342 167.416 48 178.849C64.8764 190.281 127 257.349 193.5 228.849C256.5 190.849 249.5 6.34894 279.5 10.8489" stroke="#BBBBBB" stroke-width="2.5" stroke-miterlimit="10" stroke-linecap="round" stroke-dasharray="7 7"/>
<path d="M280.474 4.47019C280.271 4.7618 280.328 5.17889 280.6 5.40089L288.125 11.5346L279.848 16.2805C279.549 16.4518 279.436 16.854 279.596 17.1777C279.757 17.5014 280.132 17.6241 280.429 17.4549L289.554 12.2216C289.738 12.1156 289.86 11.9144 289.876 11.6878C289.892 11.4611 289.798 11.2417 289.631 11.1044L281.334 4.3407C281.236 4.26168 281.125 4.21844 281.012 4.20851C280.811 4.19163 280.604 4.28263 280.474 4.47019Z" fill="#BBBBBB"/>
</svg>
