<svg width="131" height="219" viewBox="0 0 131 219" fill="none" xmlns="http://www.w3.org/2000/svg">
<path d="M11.0001 45.5003C40.0001 42.5003 48.7547 48.885 77.0002 55.0003C88.0002 56.5003 108 56.5003 117 45.5003C120.273 41.141 130.5 23.0003 114 10.5003C100.791 2.04197 81 8.00029 74.5001 10.5003C52.0002 24.0003 45.8429 50.0355 70.0002 74.5003C86.2017 90.9081 109 82.5003 119 100.5C132.593 124.967 110.22 190.664 88.5 211" stroke="#BBBBBB" stroke-width="1.5" stroke-miterlimit="10" stroke-linecap="round" stroke-dasharray="5 5"/>
<path d="M94.7524 211.28C94.5983 210.971 94.2167 210.844 93.9022 210.995L85.1918 215.186L84.9893 205.653C84.9825 205.308 84.6919 205.034 84.3424 205.04C83.9922 205.047 83.714 205.335 83.7203 205.676L83.9437 216.188C83.949 216.4 84.0633 216.597 84.2488 216.708C84.4343 216.819 84.6644 216.829 84.8588 216.736L94.4633 212.115C94.5757 212.06 94.6644 211.977 94.7254 211.88C94.8335 211.705 94.8514 211.479 94.7524 211.28Z" fill="#BBBBBB"/>
</svg>
