<svg width="564" height="546" viewBox="0 0 564 546" fill="none" xmlns="http://www.w3.org/2000/svg">
<path d="M3.49992 141.349C34.9999 79.8489 278.701 186.125 331.5 178.349C351.489 173.797 370.588 170.71 379 145.849C381.826 136.187 389.143 115.239 352.5 104.349C324.172 98.3077 315.612 106.805 306 115.349C275.875 153.301 332.488 175.561 395.5 183.349C440 188.849 461.521 163.229 490.5 187.849C529.89 221.314 475.837 381.586 451.5 430.849" stroke="#BBBBBB" stroke-width="2.5" stroke-miterlimit="10" stroke-linecap="round" stroke-dasharray="7 7"/>
<path d="M460.754 432.926C460.62 432.338 460.122 432.05 459.645 432.282L446.441 438.663L448.638 421.221C448.718 420.591 448.386 420.046 447.898 420.007C447.409 419.968 446.947 420.453 446.867 421.077L444.445 440.311C444.397 440.699 444.505 441.076 444.734 441.305C444.963 441.536 445.28 441.588 445.575 441.445L460.135 434.408C460.305 434.324 460.45 434.187 460.56 434.018C460.756 433.714 460.84 433.303 460.754 432.926Z" fill="#BBBBBB"/>
</svg>
