<svg width="371" height="218" viewBox="0 0 371 218" fill="none" xmlns="http://www.w3.org/2000/svg">
<path d="M19.5001 184.5C37.9302 100.521 161.656 119.126 186 69C193.569 53.4168 189.073 37.5393 174 29.0001C162.107 22.2624 138.839 30.3912 132.5 42.5001C126.161 54.6089 125.817 73.0868 129 86.3792C137.016 119.846 147.5 137 190.5 138.5C268.5 129 330.5 137 353.5 158" stroke="#B9B9B9" stroke-width="2.5" stroke-miterlimit="10" stroke-linecap="round" stroke-dasharray="7 7"/>
<path d="M355.794 148.253C355.34 148.458 355.139 148.995 355.345 149.451L361.057 162.053L347.223 161.9C346.722 161.894 346.312 162.294 346.307 162.793C346.301 163.292 346.707 163.702 347.202 163.708L362.456 163.876C362.764 163.879 363.054 163.725 363.224 163.466C363.393 163.206 363.417 162.879 363.29 162.598L356.993 148.703C356.918 148.54 356.803 148.41 356.663 148.319C356.413 148.157 356.086 148.121 355.794 148.253Z" fill="#B9B9B9"/>
</svg>
