<svg width="683" height="498" viewBox="0 0 683 498" fill="none" xmlns="http://www.w3.org/2000/svg">
<path d="M632.499 378.499C589.499 429.499 227.734 334.558 181.999 343C167.781 345.624 139 367.5 139 382.5C139 396.5 137.5 408.5 156 432C165 441.5 198.426 447.001 225.927 425C266.426 387.001 306.927 302 318.427 260.5C323.427 220.5 320.5 129 298 81.5" stroke="#B9B9B9" stroke-width="2.5" stroke-miterlimit="10" stroke-linecap="round" stroke-dasharray="7 7"/>
<path d="M291.014 83.1523C291.423 83.2106 291.803 82.9236 291.861 82.5124L293.463 71.1473L303.085 77.4053C303.432 77.632 303.898 77.5341 304.123 77.1871C304.348 76.8402 304.247 76.3726 303.903 76.148L293.294 69.2482C293.08 69.1091 292.808 69.0883 292.574 69.1946C292.34 69.3008 292.178 69.5196 292.142 69.7728L290.374 82.3042C290.354 82.4517 290.377 82.5938 290.434 82.7197C290.538 82.9441 290.75 83.115 291.014 83.1523Z" fill="#B9B9B9"/>
</svg>
