<svg width="96" height="176" viewBox="0 0 96 176" fill="none" xmlns="http://www.w3.org/2000/svg">
<path d="M1.20068 11.4844C33.7563 17.514 37.807 53.682 57.4079 62.4167C63.5015 65.1324 72.236 65.6917 75.3316 59.7821C77.7742 55.1194 74.6074 49.023 69.8666 46.7366C65.1258 44.4502 59.4989 45.0934 54.4232 46.4869C41.6441 49.996 28.9995 59.0186 25 73C17.5877 83.539 60.8633 159.075 50.456 165.075" stroke="#B9B9B9" stroke-width="1.5" stroke-miterlimit="10" stroke-linecap="round" stroke-dasharray="5 5"/>
<path d="M53.3569 166.58C53.2722 166.408 53.0628 166.337 52.89 166.423L48.1123 168.781L47.9958 163.454C47.9918 163.261 47.8325 163.108 47.6405 163.113C47.4485 163.117 47.2958 163.278 47.2996 163.469L47.4282 169.342C47.4309 169.461 47.494 169.57 47.5959 169.632C47.6979 169.694 47.8241 169.699 47.9308 169.647L53.199 167.047C53.2608 167.016 53.3092 166.97 53.3425 166.915C53.4016 166.817 53.4115 166.691 53.3569 166.58Z" fill="#B9B9B9"/>
</svg>
