<svg width="245" height="298" viewBox="0 0 245 298" fill="none" xmlns="http://www.w3.org/2000/svg">
<path d="M160.5 269.5C105.5 265.5 99.15 196.872 65.0981 186.014C54.5119 182.638 39.95 183.317 35.9113 193.669C32.7246 201.836 39.0869 211.346 47.3549 214.26C55.6228 217.174 64.8194 215.075 72.9656 211.836C93.4752 203.679 110.99 188.212 121.617 168.867C131.951 150.059 161 31.5002 168 11.4997" stroke="#B9B9B9" stroke-width="1.5" stroke-miterlimit="10" stroke-linecap="round" stroke-dasharray="5 5"/>
<path d="M161.48 11.4718C161.683 11.7194 162.049 11.7549 162.297 11.5515L169.161 5.92651L171.356 14.5246C171.435 14.8356 171.751 15.0237 172.061 14.9444C172.371 14.8651 172.558 14.5459 172.48 14.2381L170.059 4.75775C170.01 4.56629 169.866 4.41212 169.678 4.35007C169.489 4.28803 169.282 4.32767 169.129 4.45253L161.561 10.6544C161.472 10.7278 161.411 10.8208 161.378 10.9224C161.319 11.104 161.35 11.3127 161.48 11.4718Z" fill="#B9B9B9"/>
</svg>
