<svg width="10" height="8" viewBox="0 0 10 8" fill="none" xmlns="http://www.w3.org/2000/svg">
<path fill-rule="evenodd" clip-rule="evenodd" d="M9.76169 0.1689C9.82976 0.22926 9.88567 0.302907 9.92622 0.385632C9.96677 0.468357 9.99117 0.558538 9.99801 0.651021C10.0049 0.743505 9.99401 0.836477 9.96611 0.924624C9.9382 1.01277 9.89378 1.09436 9.83538 1.16474L4.37648 7.75349C4.31528 7.82735 4.23998 7.88734 4.1553 7.92967C4.07063 7.97201 3.97841 7.99577 3.88443 7.99949C3.79046 8.0032 3.69676 7.98677 3.60921 7.95124C3.52166 7.91571 3.44215 7.86184 3.37568 7.79302L0.191327 4.49865C0.0670883 4.36544 -0.00160985 4.18709 2.865e-05 4.002C0.00166715 3.8169 0.0735111 3.63988 0.200087 3.50905C0.326663 3.37823 0.497842 3.30407 0.676757 3.30255C0.855672 3.30103 1.02801 3.37227 1.15664 3.50092L3.82059 6.25596L8.80001 0.246083C8.91782 0.104128 9.08528 0.016361 9.2656 0.00206531C9.44592 -0.0122304 9.62435 0.0471731 9.76169 0.1689Z" fill="#1E7EF9"/>
</svg>
