<svg width="133" height="70" viewBox="0 0 133 70" fill="none" xmlns="http://www.w3.org/2000/svg">
<path fill-rule="evenodd" clip-rule="evenodd" d="M45.752 0.317574C40.039 2.17023 34.489 6.05734 30.6854 10.87C29.8987 11.8656 28.4358 14.1254 27.4345 15.8919L25.614 19.104L24.3136 19.2835C20.1256 19.8617 17.9584 20.4144 15.1774 21.6134C5.58693 25.7489 0.0132907 33.1199 2.69649e-05 41.6855C-0.0160976 52.0476 7.20044 60.6157 19.0403 64.2924C25.6756 66.3527 41.6046 68.5324 57.8632 69.6047C63.6381 69.9855 83.6417 70.138 90.2424 69.8513C109.36 69.0212 122.038 65.5596 128.398 59.4333C130.063 57.8286 130.876 56.5983 131.763 54.3413C132.392 52.7396 132.471 52.2102 132.461 49.6725C132.452 47.5008 132.317 46.3814 131.902 45.0327C128.847 35.1235 118.781 27.1706 103.635 22.6996C95.6348 20.3384 86.5956 18.8984 75.9383 18.2872C69.8666 17.9392 55.9836 18.1171 47.3843 18.6529C43.9094 18.8693 41.015 19.0012 40.9524 18.946C40.7732 18.7882 41.543 14.9254 42.1092 13.1408C42.9765 10.407 44.3136 7.92717 46.5172 4.96512C47.6794 3.40281 48.6305 1.89591 48.6305 1.61656C48.6305 1.0574 47.5499 -0.0249766 47.0168 0.000439849C46.8316 0.00936996 46.2626 0.152023 45.752 0.317574ZM41.2449 7.14086C39.6725 9.86546 38.6858 12.4483 37.9865 15.6693C37.2057 19.2673 37.0812 20.8543 37.5378 21.3938C38.0112 21.9529 38.4283 21.958 47.5902 21.5172C55.6814 21.1277 70.8549 21.1092 75.8083 21.4826C89.7797 22.5359 102.316 25.1733 110.316 28.7423C112.592 29.7576 116.169 31.7795 118.148 33.1685C124.447 37.59 128.235 43.2114 128.653 48.7565C129.019 53.6221 126.625 57.299 121.145 60.2878C117.55 62.2486 113.153 63.5869 106.367 64.7856C98.2631 66.2174 92.1061 66.6172 78.1932 66.6154C60.693 66.6133 50.0105 65.9532 35.6047 63.9835C23.3313 62.3053 17.6325 60.7549 13.2604 57.9042C9.1601 55.2306 6.16482 51.5991 4.67668 47.4972C3.79425 45.0643 3.6538 40.4025 4.38227 37.7178C5.92425 32.0343 10.1117 27.5649 16.5114 24.7721C19.9371 23.2771 23.1326 22.6531 27.364 22.6531C30.0165 22.6531 30.2279 22.6188 30.8271 22.091C31.1782 21.7819 31.4656 21.2621 31.4656 20.9358C31.4656 20.3558 30.61 19.3872 29.9182 19.1841C29.0019 18.9153 33.5636 12.0893 36.6593 9.09679C37.9261 7.87222 42.1126 4.79293 42.5105 4.79293C42.5596 4.79293 41.9903 5.84943 41.2449 7.14086Z" fill="#BECCE0"/>
</svg>
