<svg width="112" height="46" viewBox="0 0 112 46" fill="none" xmlns="http://www.w3.org/2000/svg">
<path fill-rule="evenodd" clip-rule="evenodd" d="M32.6188 0.167146C24.6866 0.390666 19.2425 0.721013 17.6182 1.07738C7.3954 3.32056 0 10.709 0 18.679C0 20.9328 0.358214 22.4543 1.39638 24.6109C2.46494 26.8303 4.20882 29.1539 6.47079 31.3723C11.7411 36.5411 18.7397 39.4878 25.7729 39.4993C28.149 39.5032 29.0106 39.3992 32.6188 38.6732C38.7287 37.4438 43.5644 36.787 49.6325 36.362C53.2959 36.1056 67.6576 36.203 68.3331 36.4887C68.6607 36.6273 68.6975 36.8144 68.6116 37.9021C68.4136 40.4108 67.2387 41.8145 63.5977 43.8933C62.2847 44.6429 61.2105 45.3167 61.2105 45.3904C61.2105 45.5904 65.2875 46.0016 67.251 46C70.8677 45.9967 75.0365 45.0185 78.1004 43.4543C79.9754 42.4969 82.4826 40.6058 83.4734 39.4017L84.0638 38.684L87.3861 38.5692C89.9128 38.482 91.2146 38.3332 92.8225 37.9477C98.4096 36.6089 102.636 34.3409 106.351 30.6878C110.233 26.8706 112.01 23.3256 112 19.4152C111.984 12.8679 106.316 6.52068 97.9403 3.66937C95.1898 2.73333 93.372 2.41401 88.355 1.98601C68.1909 0.266008 50.0813 -0.324925 32.6188 0.167146ZM56.4788 1.99358C66.2882 2.32087 74.2701 2.79104 84.5654 3.64828C88.4943 3.97537 90.2291 4.21199 91.962 4.65678C100.702 6.90058 106.762 13.2373 106.251 19.5962C106.053 22.0459 104.707 24.7799 102.347 27.5256C99.2496 31.1279 93.1487 34.3549 87.8413 35.1982C87.0396 35.3255 86.3469 35.3904 86.3018 35.3423C86.2567 35.294 86.5231 34.3336 86.8938 33.2078C87.2645 32.082 87.6209 30.5161 87.6859 29.7281L87.8039 28.2952L87.1934 29.9184C84.2398 37.7699 79.3564 41.7456 71.0767 43.0388C70.0246 43.2029 69.0567 43.338 68.9259 43.3386C68.7948 43.3393 68.999 42.8697 69.3793 42.2951C70.3561 40.8197 70.7511 39.2946 70.6176 37.5165C70.4219 34.9104 68.8655 31.7203 66.7807 29.6532L65.8794 28.7595L66.8528 30.7789C67.3882 31.8896 67.8881 33.0182 67.9636 33.2868C68.0856 33.7209 68.0482 33.7623 67.6257 33.6591C66.3208 33.3406 58.0332 33.0575 53.2572 33.1685C45.3765 33.3517 39.331 34.019 31.457 35.5742C26.8078 36.4926 23.9722 36.623 20.8166 36.0636C15.8257 35.1789 10.6748 32.4521 7.06821 28.7857C4.28152 25.9528 2.45667 22.9285 1.8941 20.21C0.35236 12.7604 7.33259 4.85206 17.2288 2.83669C19.0639 2.46293 23.6615 2.18271 32.2161 1.92337C37.0779 1.77579 51.1758 1.81673 56.4788 1.99358Z" fill="#BECCE0"/>
</svg>
