<svg width="133" height="70" viewBox="0 0 133 70" fill="none" xmlns="http://www.w3.org/2000/svg">
<path fill-rule="evenodd" clip-rule="evenodd" d="M87.062 0.317574C92.7983 2.17023 98.3708 6.05734 102.19 10.87C102.98 11.8656 104.449 14.1254 105.454 15.8919L107.282 19.104L108.588 19.2835C112.793 19.8617 114.969 20.4144 117.761 21.6134C127.39 25.7489 132.987 33.1199 133 41.6855C133.016 52.0476 125.77 60.6157 113.882 64.2924C107.22 66.3527 91.2263 68.5324 74.9016 69.6047C69.1032 69.9855 49.0183 70.138 42.3908 69.8513C23.1958 69.0212 10.4656 65.5596 4.08043 59.4333C2.40788 57.8286 1.5916 56.5983 0.70166 54.3413C0.0702515 52.7396 -0.00915527 52.2102 0.000762939 49.6725C0.00912476 47.5008 0.144653 46.3814 0.56221 45.0327C3.6292 35.1235 13.736 27.1706 28.9441 22.6996C36.9765 20.3384 46.0523 18.8984 56.753 18.2872C62.8494 17.9392 76.7888 18.1171 85.4231 18.6529C88.9121 18.8693 91.8182 19.0012 91.8812 18.946C92.0611 18.7882 91.2881 14.9254 90.7197 13.1408C89.8488 10.407 88.5063 7.92717 86.2937 4.96512C85.1267 3.40281 84.1718 1.89591 84.1718 1.61656C84.1718 1.0574 85.2568 -0.0249766 85.7921 0.000439849C85.978 0.00936996 86.5494 0.152023 87.062 0.317574ZM91.5874 7.14086C93.1662 9.86546 94.1569 12.4483 94.8591 15.6693C95.643 19.2673 95.7681 20.8543 95.3096 21.3938C94.8343 21.9529 94.4155 21.958 85.2163 21.5172C77.0923 21.1277 61.8571 21.1092 56.8836 21.4826C42.8553 22.5359 30.268 25.1733 22.2356 28.7423C19.9507 29.7576 16.3586 31.7795 14.3719 33.1685C8.04703 37.59 4.24336 43.2114 3.82399 48.7565C3.45605 53.6221 5.85978 57.299 11.3623 60.2878C14.9717 62.2486 19.3874 63.5869 26.2006 64.7856C34.3375 66.2174 40.5195 66.6172 54.489 66.6154C72.0602 66.6133 82.7862 65.9532 97.2506 63.9835C109.574 62.3053 115.296 60.7549 119.686 57.9042C123.803 55.2306 126.81 51.5991 128.304 47.4972C129.19 45.0643 129.331 40.4025 128.6 37.7178C127.052 32.0343 122.847 27.5649 116.422 24.7721C112.982 23.2771 109.773 22.6531 105.525 22.6531C102.861 22.6531 102.649 22.6188 102.048 22.091C101.695 21.7819 101.406 21.2621 101.406 20.9358C101.406 20.3558 102.266 19.3872 102.96 19.1841C103.88 18.9153 99.2999 12.0893 96.1917 9.09679C94.9197 7.87222 90.7163 4.79293 90.3167 4.79293C90.2674 4.79293 90.839 5.84943 91.5874 7.14086Z" fill="#BECCE0"/>
</svg>
