<svg width="174" height="70" viewBox="0 0 174 70" fill="none" xmlns="http://www.w3.org/2000/svg">
<path fill-rule="evenodd" clip-rule="evenodd" d="M123.281 0.254353C135.6 0.594492 144.055 1.09719 146.578 1.63949C162.454 5.05302 173.939 16.2963 173.939 28.4245C173.939 31.8543 173.383 34.1695 171.771 37.4513C170.111 40.8287 167.403 44.3646 163.89 47.7405C155.705 55.6061 144.836 60.0902 133.913 60.1076C130.223 60.1136 128.885 59.9553 123.281 58.8505C113.792 56.9797 106.283 55.9802 96.8586 55.3335C91.1693 54.9432 68.8651 55.0915 67.816 55.5263C67.3073 55.7372 67.25 56.0219 67.3836 57.6771C67.691 61.4946 69.5156 63.6308 75.1702 66.7942C77.2093 67.9349 78.8776 68.9603 78.8776 69.0724C78.8776 69.3767 72.546 70.0025 69.4965 70C63.8797 69.995 57.4055 68.5064 52.6471 66.1261C49.7352 64.6693 45.8414 61.7915 44.3026 59.959L43.3858 58.867L38.2262 58.6922C34.302 58.5595 32.2804 58.3331 29.7832 57.7466C21.1063 55.7092 14.5433 52.2579 8.77327 46.6989C2.74405 40.8901 -0.0149536 35.4955 6.10352e-05 29.5449C0.0250854 19.5815 8.82706 9.92277 21.8352 5.58382C26.1067 4.15941 28.9298 3.67349 36.7214 3.02218C68.0368 0.404795 96.1616 -0.494452 123.281 0.254353ZM86.2261 3.03371C70.9918 3.53177 58.5957 4.24724 42.6068 5.55173C36.5051 6.04948 33.8108 6.40955 31.1197 7.0864C17.5468 10.5009 8.13475 20.1437 8.92902 29.8203C9.23515 33.5481 11.3256 37.7086 14.9917 41.8868C19.8017 47.3686 29.2766 52.2791 37.5191 53.5624C38.7643 53.7562 39.84 53.8549 39.9101 53.7817C39.9801 53.7082 39.5664 52.2467 38.9907 50.5336C38.415 48.8204 37.8616 46.4376 37.7605 45.2384L37.5773 43.058L38.5254 45.5281C43.1125 57.4759 50.6965 63.5258 63.5551 65.4938C65.189 65.7436 66.6922 65.9492 66.8954 65.9501C67.099 65.951 66.7819 65.2365 66.1912 64.3622C64.6743 62.117 64.0608 59.7962 64.2681 57.0903C64.5721 53.1245 66.9893 48.27 70.227 45.1244L71.6266 43.7644L70.115 46.8375C69.2836 48.5276 68.5071 50.2451 68.3899 50.6538C68.2004 51.3145 68.2585 51.3774 68.9146 51.2204C70.9412 50.7357 83.812 50.3049 91.2294 50.4738C103.468 50.7525 112.857 51.768 125.086 54.1346C132.306 55.5323 136.71 55.7307 141.611 54.8794C149.362 53.5332 157.361 49.3836 162.962 43.8043C167.29 39.4934 170.124 34.8912 170.998 30.7544C173.392 19.418 162.552 7.38357 147.183 4.31671C144.333 3.74794 137.192 3.32151 123.907 2.92686C116.356 2.70228 94.4618 2.76458 86.2261 3.03371Z" fill="#BECCE0"/>
</svg>
