<svg width="132" height="70" viewBox="0 0 132 70" fill="none" xmlns="http://www.w3.org/2000/svg">
<path fill-rule="evenodd" clip-rule="evenodd" d="M65.4371 0.0364879C64.567 0.0820037 61.4454 0.238265 58.5003 0.383574C44.4011 1.07897 26.4509 3.03809 21.783 4.39091C9.36544 7.98933 0.535387 18.0522 0.0259514 29.1858C-0.296066 36.2183 2.38279 42.5944 7.83567 47.774C11.0434 50.8213 14.4274 52.8364 18.7845 54.2941C22.9148 55.6762 25.1363 55.9534 30.8437 55.7986L35.803 55.664L35.6918 57.5869C35.5998 59.1765 35.4255 59.823 34.6873 61.317C33.5382 63.6419 31.9609 65.1091 27.7606 67.7605C25.9925 68.8765 24.546 69.8518 24.546 69.9277C24.546 70.1704 31.285 69.7537 33.159 69.3951C35.654 68.9178 39.2072 67.6972 41.0972 66.6681C45.6142 64.2085 49.3703 60.2343 50.8965 56.2995L51.4392 54.9H58.6616C70.6851 54.9 83.052 55.6343 95.9838 57.1164C104.732 58.1192 107.516 57.9106 112.778 55.859C123.26 51.7725 130.607 41.1267 131.079 29.343C131.276 24.4283 130.412 20.3163 128.294 16.0777C125.514 10.5156 120.076 5.40004 114.455 3.06048C108.774 0.69537 102.705 0.149181 80.7713 0.0289411C73.2077 -0.0124368 66.3073 -0.00902778 65.4371 0.0364879ZM97.5659 2.54691C105.205 3.05854 107.781 3.56164 111.369 5.2428C117.948 8.3257 122.562 13.7443 124.74 20.9457C125.354 22.9771 125.403 23.4547 125.407 27.5175C125.411 31.5253 125.355 32.1061 124.753 34.3327C123.917 37.4239 121.868 41.6176 119.951 44.1617C116.111 49.2577 110.426 52.77 104.296 53.8348C101.551 54.3117 98.7269 54.2053 91.3592 53.348C81.7481 52.2296 72.254 51.6304 59.7173 51.351L52.4153 51.1879L52.4683 49.0888L52.5216 46.9895L51.9197 49.1462C49.9908 56.0598 45.9669 61.0239 39.9359 63.9301C38.4079 64.6666 35.7195 65.668 35.5978 65.546C35.562 65.5105 35.9057 64.8901 36.3614 64.1676C37.7244 62.0058 38.0564 60.7269 38.0408 57.6991C38.0286 55.3098 37.9452 54.8053 37.2658 53.0109C36.8472 51.9052 36.1219 50.3703 35.6538 49.5999C34.7116 48.0488 31.7149 44.4338 31.3714 44.4338C31.2509 44.4338 31.6375 45.2278 32.2301 46.1984C32.8226 47.1691 33.6886 48.8393 34.1542 49.9103L35.0008 51.8575L34.2155 52.051C33.7835 52.1573 31.2943 52.2637 28.6838 52.2876C23.4042 52.3355 21.4305 52.0247 17.5758 50.5382C13.2679 48.8768 8.65957 45.3804 6.15864 41.8757C4.73086 39.8752 3.24588 36.7117 2.61742 34.3327C1.90353 31.6302 1.90085 27.3174 2.61182 24.5967C4.82554 16.1228 12.4707 8.85047 21.9348 6.21592C26.272 5.00865 44.9127 3.06194 59.1088 2.33394C64.5263 2.05622 92.5538 2.21151 97.5659 2.54691Z" fill="#BECCE0"/>
</svg>
