<svg width="132" height="70" viewBox="0 0 132 70" fill="none" xmlns="http://www.w3.org/2000/svg">
<path fill-rule="evenodd" clip-rule="evenodd" d="M65.8085 0.0364879C66.6805 0.0820037 69.8087 0.238265 72.7601 0.383574C86.8892 1.07897 104.878 3.03809 109.555 4.39091C121.999 7.98933 130.848 18.0522 131.359 29.1858C131.681 36.2183 128.997 42.5944 123.532 47.774C120.318 50.8213 116.927 52.8364 112.56 54.2941C108.421 55.6762 106.195 55.9534 100.475 55.7986L95.5056 55.664L95.617 57.5869C95.7092 59.1765 95.8839 59.823 96.6237 61.317C97.7752 63.6419 99.3558 65.1091 103.565 67.7605C105.337 68.8765 106.786 69.8518 106.786 69.9277C106.786 70.1704 100.033 69.7537 98.1552 69.3951C95.6548 68.9178 92.0941 67.6972 90.2001 66.6681C85.6735 64.2085 81.9094 60.2343 80.38 56.2995L79.8361 54.9H72.5984C60.5494 54.9 48.1562 55.6343 35.1969 57.1164C26.4298 58.1192 23.6404 57.9106 18.3667 55.859C7.86316 51.7725 0.500046 41.1267 0.0273438 29.343C-0.169998 24.4283 0.69519 20.3163 2.81824 16.0777C5.60425 10.5156 11.0538 5.40004 16.6861 3.06048C22.3791 0.69537 28.4617 0.149181 50.4417 0.0289411C58.0214 -0.0124368 64.9365 -0.00902778 65.8085 0.0364879ZM33.6115 2.54691C25.9562 3.05854 23.3743 3.56164 19.7792 5.2428C13.1864 8.3257 8.56273 13.7443 6.37991 20.9457C5.76427 22.9771 5.71571 23.4547 5.71132 27.5175C5.70718 31.5253 5.76303 32.1061 6.36672 34.3327C7.20458 37.4239 9.25787 41.6176 11.179 44.1617C15.027 49.2577 20.7237 52.77 26.8672 53.8348C29.6183 54.3117 32.448 54.2053 39.8314 53.348C49.4629 52.2296 58.9771 51.6304 71.5405 51.351L78.858 51.1879L78.8048 49.0888L78.7514 46.9895L79.3546 49.1462C81.2877 56.0598 85.3201 61.0239 91.3639 63.9301C92.8952 64.6666 95.5892 65.668 95.7112 65.546C95.747 65.5105 95.4026 64.8901 94.946 64.1676C93.5801 62.0058 93.2474 60.7269 93.263 57.6991C93.2752 55.3098 93.3589 54.8053 94.0396 53.0109C94.4592 51.9052 95.186 50.3703 95.6551 49.5999C96.5993 48.0488 99.6024 44.4338 99.9465 44.4338C100.067 44.4338 99.6799 45.2278 99.086 46.1984C98.4923 47.1691 97.6245 48.8393 97.1579 49.9103L96.3095 51.8575L97.0964 52.051C97.5293 52.1573 100.024 52.2637 102.64 52.2876C107.931 52.3355 109.909 52.0247 113.771 50.5382C118.089 48.8768 122.707 45.3804 125.213 41.8757C126.644 39.8752 128.132 36.7117 128.762 34.3327C129.477 31.6302 129.48 27.3174 128.767 24.5967C126.549 16.1228 118.887 8.85047 109.403 6.21592C105.057 5.00865 86.3765 3.06194 72.1503 2.33394C66.7212 2.05622 38.6342 2.21151 33.6115 2.54691Z" fill="#BECCE0"/>
</svg>
