<svg width="18" height="18" viewBox="0 0 18 18" fill="none" xmlns="http://www.w3.org/2000/svg">
<path d="M17.0001 8.99999C17.0016 10.0504 16.7957 11.0907 16.3943 12.0613C15.9928 13.032 15.4037 13.9138 14.6606 14.6562C13.9173 15.3996 13.0348 15.9892 12.0636 16.3914C11.0923 16.7935 10.0513 17.0003 9.00007 17C7.86863 17.0028 6.74963 16.7639 5.71792 16.2994L2.37349 16.7941C2.20743 16.8213 2.03727 16.8074 1.87778 16.7538C1.71829 16.7002 1.57429 16.6085 1.4583 16.4867C1.3423 16.3648 1.25781 16.2164 1.21217 16.0545C1.16653 15.8925 1.16112 15.7219 1.19641 15.5574L1.66084 12.1645C1.22014 11.168 0.99497 10.0896 1.00009 8.99999C0.998648 7.94963 1.20456 6.90931 1.60602 5.93869C2.00747 4.96808 2.59657 4.08625 3.33954 3.34378C4.08279 2.60036 4.96528 2.01071 5.93655 1.60855C6.90783 1.20639 7.94883 0.9996 9.00007 1C11.123 1.00014 13.159 1.84316 14.6606 3.34378C15.4033 4.08648 15.9922 4.96835 16.3936 5.93891C16.795 6.90948 17.0011 7.94968 17.0001 8.99999Z" stroke="#222221" stroke-width="1.5" stroke-linecap="round" stroke-linejoin="round"/>
<path d="M9.00035 9.52768C9.14038 9.52768 9.27468 9.47205 9.3737 9.37303C9.47272 9.27401 9.52835 9.13971 9.52835 8.99968C9.52835 8.85965 9.47272 8.72535 9.3737 8.62633C9.27468 8.52731 9.14038 8.47168 9.00035 8.47168C8.86031 8.47168 8.72601 8.52731 8.62699 8.62633C8.52798 8.72535 8.47235 8.85965 8.47235 8.99968C8.47235 9.13971 8.52798 9.27401 8.62699 9.37303C8.72601 9.47205 8.86031 9.52768 9.00035 9.52768ZM12.7011 9.52768C12.8411 9.52768 12.9754 9.47205 13.0744 9.37303C13.1735 9.27401 13.2291 9.13971 13.2291 8.99968C13.2291 8.85965 13.1735 8.72535 13.0744 8.62633C12.9754 8.52731 12.8411 8.47168 12.7011 8.47168C12.5611 8.47168 12.4268 8.52731 12.3277 8.62633C12.2287 8.72535 12.1731 8.85965 12.1731 8.99968C12.1731 9.13971 12.2287 9.27401 12.3277 9.37303C12.4268 9.47205 12.5611 9.52768 12.7011 9.52768ZM5.2996 9.52768C5.36893 9.52773 5.4376 9.51413 5.50168 9.48765C5.56577 9.46117 5.624 9.42233 5.67307 9.37334C5.72214 9.32435 5.76108 9.26617 5.78767 9.20213C5.81426 9.1381 5.82797 9.06945 5.82803 9.00011C5.82808 8.93077 5.81448 8.8621 5.788 8.79802C5.76152 8.73394 5.72267 8.6757 5.67369 8.62663C5.6247 8.57756 5.56652 8.53862 5.50248 8.51204C5.43845 8.48545 5.3698 8.47174 5.30046 8.47168C5.16043 8.47168 5.02613 8.52731 4.92711 8.62633C4.82809 8.72535 4.77246 8.85965 4.77246 8.99968C4.77246 9.13971 4.82809 9.27401 4.92711 9.37303C5.02613 9.47205 5.15956 9.52768 5.2996 9.52768Z" stroke="#222221" stroke-width="1.5" stroke-linecap="round" stroke-linejoin="round"/>
</svg>
