<svg width="15" height="17" viewBox="0 0 15 17" fill="none" xmlns="http://www.w3.org/2000/svg">
<path fill-rule="evenodd" clip-rule="evenodd" d="M0 15.9375C0 15.6557 0.111942 15.3855 0.311199 15.1862C0.510456 14.9869 0.780707 14.875 1.0625 14.875H13.8125C14.0943 14.875 14.3645 14.9869 14.5638 15.1862C14.7631 15.3855 14.875 15.6557 14.875 15.9375C14.875 16.2193 14.7631 16.4895 14.5638 16.6888C14.3645 16.8881 14.0943 17 13.8125 17H1.0625C0.780707 17 0.510456 16.8881 0.311199 16.6888C0.111942 16.4895 0 16.2193 0 15.9375ZM3.49881 7.74881C3.69806 7.54962 3.96826 7.43773 4.25 7.43773C4.53174 7.43773 4.80194 7.54962 5.00119 7.74881L6.375 9.12263V1.0625C6.375 0.780707 6.48694 0.510456 6.6862 0.311199C6.88546 0.111942 7.15571 0 7.4375 0C7.71929 0 7.98954 0.111942 8.1888 0.311199C8.38806 0.510456 8.5 0.780707 8.5 1.0625V9.12263L9.87381 7.74881C9.97182 7.64733 10.0891 7.56639 10.2187 7.5107C10.3483 7.45502 10.4877 7.42571 10.6288 7.42448C10.7699 7.42326 10.9098 7.45014 11.0404 7.50356C11.171 7.55699 11.2896 7.63588 11.3894 7.73564C11.4891 7.8354 11.568 7.95403 11.6214 8.08461C11.6749 8.21519 11.7017 8.3551 11.7005 8.49618C11.6993 8.63725 11.67 8.77668 11.6143 8.9063C11.5586 9.03593 11.4777 9.15318 11.3762 9.25119L8.18869 12.4387C7.98944 12.6379 7.71924 12.7498 7.4375 12.7498C7.15576 12.7498 6.88556 12.6379 6.68631 12.4387L3.49881 9.25119C3.29962 9.05194 3.18773 8.78174 3.18773 8.5C3.18773 8.21826 3.29962 7.94806 3.49881 7.74881Z" fill="#222221"/>
</svg>
