
<svg width="144" height="24" viewBox="0 0 144 24" fill="none" xmlns="http://www.w3.org/2000/svg">
<path d="M14.9766 17.2773C14.1953 17.9492 13.3203 18.4648 12.3516 18.8242C11.3828 19.1836 10.3789 19.3633 9.33984 19.3633C8.54297 19.3633 7.77344 19.2578 7.03125 19.0469C6.29688 18.8438 5.60547 18.5547 4.95703 18.1797C4.31641 17.7969 3.73047 17.3398 3.19922 16.8086C2.66797 16.2773 2.21094 15.6914 1.82812 15.0508C1.45312 14.4023 1.16016 13.7109 0.949219 12.9766C0.746094 12.2344 0.644531 11.4648 0.644531 10.668C0.644531 9.87109 0.746094 9.10156 0.949219 8.35938C1.16016 7.61719 1.45312 6.92578 1.82812 6.28516C2.21094 5.63672 2.66797 5.04688 3.19922 4.51562C3.73047 3.98438 4.31641 3.53125 4.95703 3.15625C5.60547 2.77344 6.29688 2.48047 7.03125 2.27734C7.77344 2.06641 8.54297 1.96094 9.33984 1.96094C10.3789 1.96094 11.3828 2.14062 12.3516 2.5C13.3203 2.85156 14.1953 3.36719 14.9766 4.04688L13.1953 6.97656C12.7031 6.44531 12.1211 6.03906 11.4492 5.75781C10.7773 5.46875 10.0742 5.32422 9.33984 5.32422C8.59766 5.32422 7.90234 5.46484 7.25391 5.74609C6.60547 6.02734 6.03906 6.41016 5.55469 6.89453C5.07031 7.37109 4.6875 7.9375 4.40625 8.59375C4.125 9.24219 3.98438 9.93359 3.98438 10.668C3.98438 11.4023 4.125 12.0938 4.40625 12.7422C4.6875 13.3828 5.07031 13.9453 5.55469 14.4297C6.03906 14.9141 6.60547 15.2969 7.25391 15.5781C7.90234 15.8594 8.59766 16 9.33984 16C10.0742 16 10.7773 15.8594 11.4492 15.5781C12.1211 15.2891 12.7031 14.8789 13.1953 14.3477L14.9766 17.2773ZM19.793 19H16.5938V6.44922H17.3672L18.4219 7.9375C18.9375 7.46875 19.5234 7.10938 20.1797 6.85938C20.8359 6.60156 21.5156 6.47266 22.2188 6.47266H25.043V9.66016H22.2188C21.8828 9.66016 21.5664 9.72266 21.2695 9.84766C20.9727 9.97266 20.7148 10.1445 20.4961 10.3633C20.2773 10.582 20.1055 10.8398 19.9805 11.1367C19.8555 11.4336 19.793 11.75 19.793 12.0859V19ZM38.4492 19H37.6758L36.4336 17.2773C36.1289 17.5508 35.8047 17.8086 35.4609 18.0508C35.125 18.2852 34.7695 18.4922 34.3945 18.6719C34.0195 18.8438 33.6328 18.9805 33.2344 19.082C32.8438 19.1836 32.4453 19.2344 32.0391 19.2344C31.1562 19.2344 30.3242 19.0859 29.543 18.7891C28.7695 18.4922 28.0898 18.0625 27.5039 17.5C26.9258 16.9297 26.4688 16.2344 26.1328 15.4141C25.7969 14.5938 25.6289 13.6602 25.6289 12.6133C25.6289 11.6367 25.7969 10.7422 26.1328 9.92969C26.4688 9.10938 26.9258 8.40625 27.5039 7.82031C28.0898 7.23438 28.7695 6.78125 29.543 6.46094C30.3242 6.13281 31.1562 5.96875 32.0391 5.96875C32.4453 5.96875 32.8477 6.01953 33.2461 6.12109C33.6445 6.22266 34.0312 6.36328 34.4062 6.54297C34.7812 6.72266 35.1367 6.93359 35.4727 7.17578C35.8164 7.41797 36.1367 7.67969 36.4336 7.96094L37.6758 6.47266H38.4492V19ZM35.2266 12.6133C35.2266 12.1758 35.1406 11.7539 34.9688 11.3477C34.8047 10.9336 34.5781 10.5703 34.2891 10.2578C34 9.9375 33.6602 9.68359 33.2695 9.49609C32.8867 9.30078 32.4766 9.20312 32.0391 9.20312C31.6016 9.20312 31.1875 9.27734 30.7969 9.42578C30.4141 9.57422 30.0781 9.79297 29.7891 10.082C29.5078 10.3711 29.2852 10.7305 29.1211 11.1602C28.957 11.582 28.875 12.0664 28.875 12.6133C28.875 13.1602 28.957 13.6484 29.1211 14.0781C29.2852 14.5 29.5078 14.8555 29.7891 15.1445C30.0781 15.4336 30.4141 15.6523 30.7969 15.8008C31.1875 15.9492 31.6016 16.0234 32.0391 16.0234C32.4766 16.0234 32.8867 15.9297 33.2695 15.7422C33.6602 15.5469 34 15.293 34.2891 14.9805C34.5781 14.6602 34.8047 14.2969 34.9688 13.8906C35.1406 13.4766 35.2266 13.0508 35.2266 12.6133ZM44.9648 19H41.7656V9.63672H40.207V6.44922H41.7656V5.85156C41.7656 5.07812 41.9102 4.35156 42.1992 3.67188C42.4961 2.99219 42.8984 2.40234 43.4062 1.90234C43.9219 1.39453 44.5195 0.996094 45.1992 0.707031C45.8789 0.410156 46.6055 0.261719 47.3789 0.261719H49.7812V3.44922H47.3789C47.0352 3.44922 46.7148 3.51172 46.418 3.63672C46.1289 3.75391 45.875 3.92188 45.6562 4.14062C45.4453 4.35156 45.2773 4.60547 45.1523 4.90234C45.0273 5.19141 44.9648 5.50781 44.9648 5.85156V6.44922H48.8906V9.63672H44.9648V19ZM56.707 19C55.9336 19 55.207 18.8555 54.5273 18.5664C53.8477 18.2695 53.25 17.8672 52.7344 17.3594C52.2266 16.8438 51.8242 16.2461 51.5273 15.5664C51.2383 14.8867 51.0938 14.1602 51.0938 13.3867V9.66016H49.5352V6.47266H51.0938V1.45703H54.2812V6.47266H59.1328V9.66016H54.2812V13.3867C54.2812 13.7227 54.3438 14.0391 54.4688 14.3359C54.5938 14.625 54.7656 14.8789 54.9844 15.0977C55.2031 15.3164 55.4609 15.4922 55.7578 15.625C56.0547 15.75 56.3711 15.8125 56.707 15.8125H59.1328V19H56.707ZM63.9609 23.7812V20.5586L65.7422 20.582C66.0547 20.582 66.3555 20.5312 66.6445 20.4297C66.9336 20.3281 67.1992 20.1875 67.4414 20.0078C67.6914 19.8281 67.9102 19.6133 68.0977 19.3633C68.2852 19.1211 68.4375 18.8555 68.5547 18.5664C68.2031 18.7148 67.8438 18.8633 67.4766 19.0117C67.1172 19.1602 66.7539 19.2344 66.3867 19.2344C65.6133 19.2344 64.8867 19.0977 64.207 18.8242C63.5273 18.5508 62.9297 18.1641 62.4141 17.6641C61.9062 17.1562 61.5039 16.543 61.207 15.8242C60.918 15.0977 60.7734 14.2852 60.7734 13.3867V6.44922H63.9609V13.3867C63.9609 13.832 64.0234 14.2227 64.1484 14.5586C64.2812 14.8867 64.457 15.1641 64.6758 15.3906C64.8945 15.6094 65.1484 15.7734 65.4375 15.8828C65.7344 15.9922 66.0508 16.0469 66.3867 16.0469C66.7148 16.0469 67.0234 15.9727 67.3125 15.8242C67.6094 15.668 67.8672 15.4648 68.0859 15.2148C68.3047 14.9648 68.4766 14.6836 68.6016 14.3711C68.7266 14.0508 68.7891 13.7227 68.7891 13.3867V6.44922H72.0117V17.418C72.0039 18.3008 71.832 19.1289 71.4961 19.9023C71.1602 20.6758 70.6992 21.3516 70.1133 21.9297C69.5352 22.5078 68.8594 22.9648 68.0859 23.3008C67.3125 23.6367 66.4844 23.8047 65.6016 23.8047L63.9609 23.7812ZM91.4766 14.1953C91.4766 14.8906 91.3438 15.5469 91.0781 16.1641C90.8203 16.7734 90.4609 17.3086 90 17.7695C89.5469 18.2227 89.0117 18.582 88.3945 18.8477C87.7852 19.1055 87.1328 19.2344 86.4375 19.2344C85.8125 19.2344 85.2109 19.125 84.6328 18.9062C84.0625 18.6875 83.5469 18.3672 83.0859 17.9453C82.625 18.3672 82.1055 18.6875 81.5273 18.9062C80.9492 19.125 80.3477 19.2344 79.7227 19.2344C79.0273 19.2344 78.3711 19.1055 77.7539 18.8477C77.1445 18.582 76.6094 18.2227 76.1484 17.7695C75.6953 17.3086 75.3359 16.7734 75.0703 16.1641C74.8125 15.5469 74.6836 14.8906 74.6836 14.1953V2.19531H78.0469V14.1953C78.0469 14.4297 78.0898 14.6523 78.1758 14.8633C78.2617 15.0664 78.3789 15.2461 78.5273 15.4023C78.6836 15.5508 78.8633 15.668 79.0664 15.7539C79.2695 15.8398 79.4883 15.8828 79.7227 15.8828C79.957 15.8828 80.1758 15.8398 80.3789 15.7539C80.582 15.668 80.7578 15.5508 80.9062 15.4023C81.0625 15.2461 81.1836 15.0664 81.2695 14.8633C81.3555 14.6523 81.3984 14.4297 81.3984 14.1953V2.19531H84.7617V14.1953C84.7617 14.4297 84.8047 14.6523 84.8906 14.8633C84.9766 15.0664 85.0938 15.2461 85.2422 15.4023C85.3984 15.5508 85.5781 15.668 85.7812 15.7539C85.9844 15.8398 86.2031 15.8828 86.4375 15.8828C86.6719 15.8828 86.8906 15.8398 87.0938 15.7539C87.2969 15.668 87.4727 15.5508 87.6211 15.4023C87.7773 15.2461 87.8984 15.0664 87.9844 14.8633C88.0781 14.6523 88.125 14.4297 88.125 14.1953V2.19531H91.4766V14.1953ZM106.113 12.6133C106.113 13.5508 105.945 14.4258 105.609 15.2383C105.273 16.043 104.816 16.7422 104.238 17.3359C103.66 17.9219 102.98 18.3867 102.199 18.7305C101.426 19.0664 100.594 19.2344 99.7031 19.2344C98.8203 19.2344 97.9883 19.0664 97.207 18.7305C96.4336 18.3867 95.7539 17.9219 95.168 17.3359C94.5898 16.7422 94.1328 16.043 93.7969 15.2383C93.4609 14.4258 93.293 13.5508 93.293 12.6133C93.293 11.6602 93.4609 10.7773 93.7969 9.96484C94.1328 9.15234 94.5898 8.45312 95.168 7.86719C95.7539 7.27344 96.4336 6.80859 97.207 6.47266C97.9883 6.13672 98.8203 5.96875 99.7031 5.96875C100.594 5.96875 101.426 6.12891 102.199 6.44922C102.98 6.76172 103.66 7.21094 104.238 7.79688C104.816 8.375 105.273 9.07422 105.609 9.89453C105.945 10.707 106.113 11.6133 106.113 12.6133ZM102.891 12.6133C102.891 12.0977 102.805 11.6328 102.633 11.2188C102.469 10.7969 102.242 10.4375 101.953 10.1406C101.664 9.83594 101.324 9.60547 100.934 9.44922C100.551 9.28516 100.141 9.20312 99.7031 9.20312C99.2656 9.20312 98.8516 9.28516 98.4609 9.44922C98.0781 9.60547 97.7422 9.83594 97.4531 10.1406C97.1719 10.4375 96.9492 10.7969 96.7852 11.2188C96.6211 11.6328 96.5391 12.0977 96.5391 12.6133C96.5391 13.0977 96.6211 13.5469 96.7852 13.9609C96.9492 14.375 97.1719 14.7344 97.4531 15.0391C97.7422 15.3438 98.0781 15.5859 98.4609 15.7656C98.8516 15.9375 99.2656 16.0234 99.7031 16.0234C100.141 16.0234 100.551 15.9414 100.934 15.7773C101.324 15.6133 101.664 15.3828 101.953 15.0859C102.242 14.7891 102.469 14.4297 102.633 14.0078C102.805 13.5859 102.891 13.1211 102.891 12.6133ZM111.082 19H107.883V6.44922H108.656L109.711 7.9375C110.227 7.46875 110.812 7.10938 111.469 6.85938C112.125 6.60156 112.805 6.47266 113.508 6.47266H116.332V9.66016H113.508C113.172 9.66016 112.855 9.72266 112.559 9.84766C112.262 9.97266 112.004 10.1445 111.785 10.3633C111.566 10.582 111.395 10.8398 111.27 11.1367C111.145 11.4336 111.082 11.75 111.082 12.0859V19ZM129.715 19H128.941L127.699 17.2773C127.395 17.5508 127.07 17.8086 126.727 18.0508C126.391 18.2852 126.035 18.4922 125.66 18.6719C125.285 18.8438 124.898 18.9805 124.5 19.082C124.109 19.1836 123.711 19.2344 123.305 19.2344C122.422 19.2344 121.59 19.0703 120.809 18.7422C120.035 18.4062 119.355 17.9453 118.77 17.3594C118.191 16.7656 117.734 16.0664 117.398 15.2617C117.062 14.4492 116.895 13.5664 116.895 12.6133C116.895 11.668 117.062 10.7891 117.398 9.97656C117.734 9.16406 118.191 8.46094 118.77 7.86719C119.355 7.27344 120.035 6.80859 120.809 6.47266C121.59 6.13672 122.422 5.96875 123.305 5.96875C123.586 5.96875 123.875 5.99219 124.172 6.03906C124.477 6.08594 124.77 6.16406 125.051 6.27344C125.34 6.375 125.609 6.51172 125.859 6.68359C126.109 6.85547 126.32 7.06641 126.492 7.31641V1.45703H129.715V19ZM126.492 12.6133C126.492 12.1758 126.406 11.7539 126.234 11.3477C126.07 10.9336 125.844 10.5703 125.555 10.2578C125.266 9.9375 124.926 9.68359 124.535 9.49609C124.152 9.30078 123.742 9.20312 123.305 9.20312C122.867 9.20312 122.453 9.28125 122.062 9.4375C121.68 9.59375 121.344 9.82031 121.055 10.1172C120.773 10.4062 120.551 10.7617 120.387 11.1836C120.223 11.6055 120.141 12.082 120.141 12.6133C120.141 13.0742 120.223 13.5117 120.387 13.9258C120.551 14.3398 120.773 14.7031 121.055 15.0156C121.344 15.3281 121.68 15.5742 122.062 15.7539C122.453 15.9336 122.867 16.0234 123.305 16.0234C123.742 16.0234 124.152 15.9297 124.535 15.7422C124.926 15.5469 125.266 15.293 125.555 14.9805C125.844 14.6602 126.07 14.2969 126.234 13.8906C126.406 13.4766 126.492 13.0508 126.492 12.6133ZM139.055 19H131.742V15.8125H139.055C139.273 15.8125 139.461 15.7344 139.617 15.5781C139.773 15.4219 139.852 15.2344 139.852 15.0156C139.852 14.7891 139.773 14.6406 139.617 14.5703C139.461 14.5 139.273 14.4648 139.055 14.4648H135.727C135.172 14.4648 134.652 14.3594 134.168 14.1484C133.684 13.9375 133.262 13.6523 132.902 13.293C132.543 12.9258 132.258 12.5 132.047 12.0156C131.844 11.5312 131.742 11.0117 131.742 10.457C131.742 9.90234 131.844 9.38281 132.047 8.89844C132.258 8.41406 132.543 7.99219 132.902 7.63281C133.262 7.27344 133.684 6.99219 134.168 6.78906C134.652 6.57812 135.172 6.47266 135.727 6.47266H142.207V9.66016H135.727C135.508 9.66016 135.32 9.73828 135.164 9.89453C135.008 10.0508 134.93 10.2383 134.93 10.457C134.93 10.6836 135.008 10.8789 135.164 11.043C135.32 11.1992 135.508 11.2773 135.727 11.2773H139.055C139.602 11.2773 140.117 11.3711 140.602 11.5586C141.086 11.7383 141.508 11.9922 141.867 12.3203C142.227 12.6484 142.512 13.043 142.723 13.5039C142.934 13.9648 143.039 14.4688 143.039 15.0156C143.039 15.5703 142.934 16.0898 142.723 16.5742C142.512 17.0508 142.227 17.4727 141.867 17.8398C141.508 18.1992 141.086 18.4844 140.602 18.6953C140.117 18.8984 139.602 19 139.055 19Z" fill="#2580F5"/>
</svg>
