<svg width="65" height="50" viewBox="0 0 65 50" fill="none" xmlns="http://www.w3.org/2000/svg">
<path fill-rule="evenodd" clip-rule="evenodd" d="M21.43 0.304393C19.0814 0.924526 16.8118 2.04861 16.8118 2.59161C16.8118 3.01292 16.9773 2.98878 18.1534 2.39457C19.6474 1.63995 21.2178 1.14376 23.184 0.805096C24.1488 0.639003 24.9763 0.464822 25.0233 0.417992C25.5196 -0.0785029 23.1626 -0.15305 21.43 0.304393ZM41.9283 0.429821C41.4388 0.519754 41.09 0.78291 41.2077 0.973309C41.255 1.04979 42.1838 1.112 43.2719 1.11152C45.6791 1.11038 47.228 1.4591 49.2202 2.45063C50.3267 3.00141 50.8842 3.42402 52.0559 4.59996C53.5091 6.05849 54.1114 6.99979 55.0486 9.27663C55.2878 9.85739 55.4445 10.0436 55.6577 9.99982C56.4889 9.82871 55.2462 6.71135 53.5564 4.72796C51.06 1.79776 47.7879 0.285269 44.0494 0.333233C43.1057 0.345386 42.1511 0.388825 41.9283 0.429821ZM23.2935 2.01133C21.104 2.45046 18.4608 3.58929 17.4587 4.5254C17.1526 4.81157 16.6668 5.02661 16.0509 5.14879C13.2492 5.70459 10.5175 8.27764 9.76061 11.0737C9.4806 12.1078 9.46148 12.1316 8.41923 12.7393C6.35515 13.9423 4.82013 15.9061 4.25865 18.0616C3.59558 20.6075 4.34924 23.382 6.15649 25.048L6.86704 25.7028L6.49774 26.6901C5.59015 29.117 5.74183 32.1527 6.88389 34.4182C8.34551 37.3181 11.3386 39.5708 14.4118 40.0845C14.8612 40.1596 15.0942 40.321 15.3493 40.7339C15.5361 41.0361 16.1421 41.7029 16.696 42.2159C18.7064 44.0776 22.0921 45.1674 28.2309 45.9285C34.2824 46.6787 39.064 45.4119 41.991 42.2827L42.7618 41.4586L43.6111 42.2347C46.9837 45.3171 52.886 45.5227 57.5653 42.721C59.1465 41.7742 61.5679 39.2964 62.5599 37.6102C64.0068 35.1506 64.7781 32.4685 64.7734 29.9138C64.7695 27.8754 64.4331 26.4321 63.5403 24.6236C62.907 23.3409 62.5424 22.8483 61.3086 21.6098C59.6713 19.9663 58.2219 19.1074 56.5205 18.7726L55.5746 18.5866L55.5667 16.7813C55.5422 11.1437 52.1557 5.78967 47.1904 3.53826C45.2464 2.65692 43.6996 2.34546 41.2801 2.3487C38.8398 2.35178 37.2206 2.66518 35.2165 3.52222L34.0952 4.0017L33.0993 3.45431C31.0046 2.30285 28.7261 1.76147 26.0745 1.7848C25.1243 1.79323 23.8728 1.89514 23.2935 2.01133ZM29.4174 3.48574C30.1043 3.62753 31.1648 3.93736 31.7739 4.17426L32.8815 4.60498L32.3411 5.00085C31.3071 5.75839 29.1453 8.04073 29.0312 8.49542C28.9024 9.00877 29.1082 9.44014 29.5208 9.52116C29.6972 9.55583 30.4308 8.96146 31.5289 7.8941C34.3571 5.14506 36.8344 4.07477 40.713 3.92618C43.3612 3.82474 44.7049 4.08353 46.7085 5.08041C48.5044 5.97406 49.7461 6.9429 50.9216 8.36806C51.9258 9.58547 53.2607 12.1837 53.6632 13.7038C54.0652 15.2221 54.22 17.4515 54.0414 19.1485C53.7889 21.5479 53.7789 21.4508 54.2849 21.509C54.5476 21.5391 54.7625 21.4725 54.8067 21.3469C54.8482 21.2296 54.9532 20.9384 55.0402 20.7001L55.1983 20.2668L56.2183 20.5756C58.9444 21.4011 60.7207 22.864 61.9302 25.28C62.8023 27.022 63.0742 28.4635 62.9418 30.6428C62.7592 33.6491 61.4096 36.6801 59.2333 38.9711C57.8041 40.4758 56.2275 41.5359 54.3301 42.268C52.9312 42.8077 52.7723 42.8332 50.7596 42.8374C48.8601 42.8413 48.5257 42.797 47.3583 42.3869C45.8792 41.8672 44.5895 41.127 43.5139 40.1802C43.1047 39.82 42.6406 39.5252 42.4828 39.5252C42.3248 39.5252 41.6014 40.1303 40.8752 40.8697C37.4582 44.3487 32.8943 45.1507 25.076 43.6461C19.3471 42.5436 16.6391 41.04 15.8728 38.5361C15.6225 37.7186 15.481 37.4885 15.2024 37.4467C14.6619 37.3657 14.349 37.7133 14.4694 38.2615C14.5671 38.7063 14.5501 38.7235 14.1121 38.6232C13.859 38.5653 13.0687 38.2398 12.3557 37.9C10.6181 37.0716 9.3871 35.8425 8.54626 34.0969C7.1566 31.2115 7.25917 28.5442 8.88461 25.3043C9.56875 23.9406 9.68282 23.5984 9.51851 23.4003C9.2108 23.0296 8.85771 23.1095 8.25929 23.6857L7.7124 24.2123L7.3107 23.7262C7.08983 23.4588 6.7126 22.8755 6.47262 22.4299C6.07416 21.6903 6.03608 21.4641 6.03608 19.8372C6.03608 18.2208 6.07611 17.9792 6.4655 17.2445C7.47113 15.3474 8.82093 14.1546 11.2619 13.0054C12.3923 12.4732 12.7608 12.2227 12.7608 11.9865C12.7608 11.5747 12.4883 11.4224 11.8308 11.4666L11.2935 11.5028L11.5476 10.8897C12.34 8.97766 13.999 7.43244 15.961 6.77925C17.4526 6.28275 19.4262 6.28437 20.7819 6.78346C22.1861 7.30054 22.5808 7.35659 22.6964 7.05568C22.8766 6.58609 21.7739 5.86354 20.0582 5.32719L19.1726 5.05042L20.1392 4.56657C22.0968 3.5867 23.5601 3.26636 26.1766 3.24448C27.4299 3.23411 28.6315 3.32354 29.4174 3.48574ZM55.3171 5.13955C55.2671 5.22041 55.4761 5.78951 55.7815 6.40429C56.4305 7.71051 56.8 9.03308 56.9426 10.5597C57.0498 11.7095 57.2495 12.062 57.6518 11.8119C58.026 11.5792 57.9046 9.70183 57.4164 8.17021C56.7661 6.13043 55.6767 4.55766 55.3171 5.13955ZM5.26866 12.871C4.1018 13.7307 3.41684 14.5371 2.78439 15.7954C2.02442 17.3077 1.78412 18.7236 2.01535 20.3285C2.28077 22.1716 3.19112 23.7192 3.70658 23.2038C3.85339 23.057 3.78856 22.7194 3.42754 21.749C3.02713 20.6732 2.95811 20.2558 2.96313 18.9406C2.96848 17.5074 3.01077 17.3089 3.54988 16.1859C4.14668 14.9427 5.18245 13.7198 6.09523 13.1807C6.61959 12.8709 6.71796 12.4207 6.27737 12.3463C6.14465 12.324 5.69078 12.5601 5.26866 12.871ZM56.2588 12.8375C56.138 13.152 56.6044 15.8623 56.8155 16.0735C56.951 16.2089 57.0461 16.2081 57.1839 16.0704C57.3754 15.8789 57.1325 13.8109 56.8227 12.996C56.6677 12.5884 56.3848 12.5089 56.2588 12.8375ZM0.710432 15.6646C0.206645 16.6617 -0.101569 18.1747 0.0306568 19.0014C0.164503 19.8385 0.585989 20.7284 0.848658 20.7284C1.0026 20.7284 1.04781 20.2417 1.03274 18.7434C1.01475 16.9558 1.05022 16.6884 1.38872 16.054C1.59549 15.6666 1.72529 15.2474 1.67732 15.1223C1.50604 14.6757 1.09301 14.9073 0.710432 15.6646ZM58.5638 17.5584C58.5055 17.7106 58.7106 17.93 59.1541 18.1904C61.0615 19.3101 62.5345 20.9368 63.6164 23.1185C64.473 24.8456 64.9837 24.6213 64.2988 22.8188C63.9138 21.8054 62.4308 19.8357 61.4439 19.0272C60.7117 18.4271 58.9786 17.3256 58.767 17.3256C58.7045 17.3256 58.6131 17.4304 58.5638 17.5584ZM62.9893 18.9487C62.8101 19.0594 62.8221 19.1958 63.0564 19.7155C63.4557 20.6011 64.0358 21.2907 64.2631 21.1501C64.5537 20.9707 64.4913 20.6012 64.0264 19.7469C63.5723 18.9131 63.3385 18.7329 62.9893 18.9487ZM61.6163 42.1443C60.304 43.4565 58.809 44.4962 57.1291 45.2649C55.0767 46.204 53.9952 46.4099 51.0102 46.4298C48.4305 46.447 47.9577 46.5407 48.4451 46.938C48.7289 47.1692 50.7584 47.4666 52.006 47.4596C54.354 47.4466 57.2244 46.5984 59.4432 45.2618C61.0255 44.3087 63.3652 41.964 63.2858 41.4109C63.1985 40.8007 62.7735 40.9873 61.6163 42.1443ZM16.3894 44.4144C16.0592 44.9488 19.719 47.0077 22.1592 47.6604C23.2771 47.9593 23.9485 48.0277 25.7241 48.0232C28.1847 48.017 29.208 47.7816 29.208 47.2216C29.208 46.9278 29.1264 46.9056 28.3168 46.9792C26.4671 47.1474 23.2235 47.0336 22.1059 46.7614C20.627 46.401 18.8226 45.6358 17.6214 44.8595C16.5142 44.1437 16.549 44.1564 16.3894 44.4144ZM60.2962 45.2913C59.8712 45.94 58.6699 46.781 57.6235 47.1626C56.8983 47.4269 56.6741 47.585 56.6741 47.8321C56.6741 48.1186 56.7557 48.1463 57.3885 48.075C58.2488 47.9781 59.443 47.423 60.1759 46.7797C60.8277 46.2074 61.4336 45.2635 61.294 45.0376C61.1059 44.7333 60.5731 44.8687 60.2962 45.2913ZM22.8683 48.8366C22.7129 49.2417 22.9258 49.3555 24.3468 49.6271C26.2513 49.9909 27.6481 50.0886 28.5335 49.9199C29.4671 49.7418 29.7483 49.5247 29.4734 49.1936C29.3266 49.0168 28.619 48.9455 26.4096 48.8852C24.8295 48.8421 23.4095 48.7527 23.2543 48.6864C23.062 48.6043 22.9391 48.6521 22.8683 48.8366Z" fill="white"/>
<path d="M37.92 24.6241C37.8724 24.5013 37.801 24.3892 37.71 24.2941L32.71 19.2941C32.6168 19.2009 32.5061 19.1269 32.3842 19.0764C32.2624 19.026 32.1319 19 32 19C31.7337 19 31.4783 19.1058 31.29 19.2941C31.1968 19.3873 31.1228 19.498 31.0723 19.6198C31.0219 19.7417 30.9959 19.8722 30.9959 20.0041C30.9959 20.2704 31.1017 20.5258 31.29 20.7141L34.59 24.0041H27C26.7348 24.0041 26.4804 24.1094 26.2929 24.297C26.1054 24.4845 26 24.7389 26 25.0041C26 25.2693 26.1054 25.5237 26.2929 25.7112C26.4804 25.8987 26.7348 26.0041 27 26.0041H34.59L31.29 29.2941C31.1963 29.3871 31.1219 29.4977 31.0711 29.6195C31.0203 29.7414 30.9942 29.8721 30.9942 30.0041C30.9942 30.1361 31.0203 30.2668 31.0711 30.3887C31.1219 30.5105 31.1963 30.6211 31.29 30.7141C31.383 30.8078 31.4936 30.8822 31.6154 30.933C31.7373 30.9838 31.868 31.0099 32 31.0099C32.132 31.0099 32.2627 30.9838 32.3846 30.933C32.5064 30.8822 32.617 30.8078 32.71 30.7141L37.71 25.7141C37.801 25.619 37.8724 25.5068 37.92 25.3841C38.02 25.1406 38.02 24.8676 37.92 24.6241Z" fill="white"/>
</svg>
