<!--Пример использования
<svg xmlns="http://www.w3.org/2000/svg">
   <use xlink:href="img/svgicons/sprite.svg#logo"></use>
</svg>
-->
<svg style="display: none;" xmlns="http://www.w3.org/2000/svg" xmlns:xlink="http://www.w3.org/1999/xlink">

	<symbol id="chevron-bottom" viewBox="0 0 16 16">
		<path fill-rule="evenodd" d="M1.646 4.646a.5.5 0 0 1 .708 0L8 10.293l5.646-5.647a.5.5 0 0 1 .708.708l-6 6a.5.5 0 0 1-.708 0l-6-6a.5.5 0 0 1 0-.708z"/>
	</symbol>

   <symbol id="logo" width="144" height="24" viewBox="0 0 144 24" fill="none" xmlns="http://www.w3.org/2000/svg">
		<path d="M14.9766 17.2773C14.1953 17.9492 13.3203 18.4648 12.3516 18.8242C11.3828 19.1836 10.3789 19.3633 9.33984 19.3633C8.54297 19.3633 7.77344 19.2578 7.03125 19.0469C6.29688 18.8438 5.60547 18.5547 4.95703 18.1797C4.31641 17.7969 3.73047 17.3398 3.19922 16.8086C2.66797 16.2773 2.21094 15.6914 1.82812 15.0508C1.45312 14.4023 1.16016 13.7109 0.949219 12.9766C0.746094 12.2344 0.644531 11.4648 0.644531 10.668C0.644531 9.87109 0.746094 9.10156 0.949219 8.35938C1.16016 7.61719 1.45312 6.92578 1.82812 6.28516C2.21094 5.63672 2.66797 5.04688 3.19922 4.51562C3.73047 3.98438 4.31641 3.53125 4.95703 3.15625C5.60547 2.77344 6.29688 2.48047 7.03125 2.27734C7.77344 2.06641 8.54297 1.96094 9.33984 1.96094C10.3789 1.96094 11.3828 2.14062 12.3516 2.5C13.3203 2.85156 14.1953 3.36719 14.9766 4.04688L13.1953 6.97656C12.7031 6.44531 12.1211 6.03906 11.4492 5.75781C10.7773 5.46875 10.0742 5.32422 9.33984 5.32422C8.59766 5.32422 7.90234 5.46484 7.25391 5.74609C6.60547 6.02734 6.03906 6.41016 5.55469 6.89453C5.07031 7.37109 4.6875 7.9375 4.40625 8.59375C4.125 9.24219 3.98438 9.93359 3.98438 10.668C3.98438 11.4023 4.125 12.0938 4.40625 12.7422C4.6875 13.3828 5.07031 13.9453 5.55469 14.4297C6.03906 14.9141 6.60547 15.2969 7.25391 15.5781C7.90234 15.8594 8.59766 16 9.33984 16C10.0742 16 10.7773 15.8594 11.4492 15.5781C12.1211 15.2891 12.7031 14.8789 13.1953 14.3477L14.9766 17.2773ZM19.793 19H16.5938V6.44922H17.3672L18.4219 7.9375C18.9375 7.46875 19.5234 7.10938 20.1797 6.85938C20.8359 6.60156 21.5156 6.47266 22.2188 6.47266H25.043V9.66016H22.2188C21.8828 9.66016 21.5664 9.72266 21.2695 9.84766C20.9727 9.97266 20.7148 10.1445 20.4961 10.3633C20.2773 10.582 20.1055 10.8398 19.9805 11.1367C19.8555 11.4336 19.793 11.75 19.793 12.0859V19ZM38.4492 19H37.6758L36.4336 17.2773C36.1289 17.5508 35.8047 17.8086 35.4609 18.0508C35.125 18.2852 34.7695 18.4922 34.3945 18.6719C34.0195 18.8438 33.6328 18.9805 33.2344 19.082C32.8438 19.1836 32.4453 19.2344 32.0391 19.2344C31.1562 19.2344 30.3242 19.0859 29.543 18.7891C28.7695 18.4922 28.0898 18.0625 27.5039 17.5C26.9258 16.9297 26.4688 16.2344 26.1328 15.4141C25.7969 14.5938 25.6289 13.6602 25.6289 12.6133C25.6289 11.6367 25.7969 10.7422 26.1328 9.92969C26.4688 9.10938 26.9258 8.40625 27.5039 7.82031C28.0898 7.23438 28.7695 6.78125 29.543 6.46094C30.3242 6.13281 31.1562 5.96875 32.0391 5.96875C32.4453 5.96875 32.8477 6.01953 33.2461 6.12109C33.6445 6.22266 34.0312 6.36328 34.4062 6.54297C34.7812 6.72266 35.1367 6.93359 35.4727 7.17578C35.8164 7.41797 36.1367 7.67969 36.4336 7.96094L37.6758 6.47266H38.4492V19ZM35.2266 12.6133C35.2266 12.1758 35.1406 11.7539 34.9688 11.3477C34.8047 10.9336 34.5781 10.5703 34.2891 10.2578C34 9.9375 33.6602 9.68359 33.2695 9.49609C32.8867 9.30078 32.4766 9.20312 32.0391 9.20312C31.6016 9.20312 31.1875 9.27734 30.7969 9.42578C30.4141 9.57422 30.0781 9.79297 29.7891 10.082C29.5078 10.3711 29.2852 10.7305 29.1211 11.1602C28.957 11.582 28.875 12.0664 28.875 12.6133C28.875 13.1602 28.957 13.6484 29.1211 14.0781C29.2852 14.5 29.5078 14.8555 29.7891 15.1445C30.0781 15.4336 30.4141 15.6523 30.7969 15.8008C31.1875 15.9492 31.6016 16.0234 32.0391 16.0234C32.4766 16.0234 32.8867 15.9297 33.2695 15.7422C33.6602 15.5469 34 15.293 34.2891 14.9805C34.5781 14.6602 34.8047 14.2969 34.9688 13.8906C35.1406 13.4766 35.2266 13.0508 35.2266 12.6133ZM44.9648 19H41.7656V9.63672H40.207V6.44922H41.7656V5.85156C41.7656 5.07812 41.9102 4.35156 42.1992 3.67188C42.4961 2.99219 42.8984 2.40234 43.4062 1.90234C43.9219 1.39453 44.5195 0.996094 45.1992 0.707031C45.8789 0.410156 46.6055 0.261719 47.3789 0.261719H49.7812V3.44922H47.3789C47.0352 3.44922 46.7148 3.51172 46.418 3.63672C46.1289 3.75391 45.875 3.92188 45.6562 4.14062C45.4453 4.35156 45.2773 4.60547 45.1523 4.90234C45.0273 5.19141 44.9648 5.50781 44.9648 5.85156V6.44922H48.8906V9.63672H44.9648V19ZM56.707 19C55.9336 19 55.207 18.8555 54.5273 18.5664C53.8477 18.2695 53.25 17.8672 52.7344 17.3594C52.2266 16.8438 51.8242 16.2461 51.5273 15.5664C51.2383 14.8867 51.0938 14.1602 51.0938 13.3867V9.66016H49.5352V6.47266H51.0938V1.45703H54.2812V6.47266H59.1328V9.66016H54.2812V13.3867C54.2812 13.7227 54.3438 14.0391 54.4688 14.3359C54.5938 14.625 54.7656 14.8789 54.9844 15.0977C55.2031 15.3164 55.4609 15.4922 55.7578 15.625C56.0547 15.75 56.3711 15.8125 56.707 15.8125H59.1328V19H56.707ZM63.9609 23.7812V20.5586L65.7422 20.582C66.0547 20.582 66.3555 20.5312 66.6445 20.4297C66.9336 20.3281 67.1992 20.1875 67.4414 20.0078C67.6914 19.8281 67.9102 19.6133 68.0977 19.3633C68.2852 19.1211 68.4375 18.8555 68.5547 18.5664C68.2031 18.7148 67.8438 18.8633 67.4766 19.0117C67.1172 19.1602 66.7539 19.2344 66.3867 19.2344C65.6133 19.2344 64.8867 19.0977 64.207 18.8242C63.5273 18.5508 62.9297 18.1641 62.4141 17.6641C61.9062 17.1562 61.5039 16.543 61.207 15.8242C60.918 15.0977 60.7734 14.2852 60.7734 13.3867V6.44922H63.9609V13.3867C63.9609 13.832 64.0234 14.2227 64.1484 14.5586C64.2812 14.8867 64.457 15.1641 64.6758 15.3906C64.8945 15.6094 65.1484 15.7734 65.4375 15.8828C65.7344 15.9922 66.0508 16.0469 66.3867 16.0469C66.7148 16.0469 67.0234 15.9727 67.3125 15.8242C67.6094 15.668 67.8672 15.4648 68.0859 15.2148C68.3047 14.9648 68.4766 14.6836 68.6016 14.3711C68.7266 14.0508 68.7891 13.7227 68.7891 13.3867V6.44922H72.0117V17.418C72.0039 18.3008 71.832 19.1289 71.4961 19.9023C71.1602 20.6758 70.6992 21.3516 70.1133 21.9297C69.5352 22.5078 68.8594 22.9648 68.0859 23.3008C67.3125 23.6367 66.4844 23.8047 65.6016 23.8047L63.9609 23.7812ZM91.4766 14.1953C91.4766 14.8906 91.3438 15.5469 91.0781 16.1641C90.8203 16.7734 90.4609 17.3086 90 17.7695C89.5469 18.2227 89.0117 18.582 88.3945 18.8477C87.7852 19.1055 87.1328 19.2344 86.4375 19.2344C85.8125 19.2344 85.2109 19.125 84.6328 18.9062C84.0625 18.6875 83.5469 18.3672 83.0859 17.9453C82.625 18.3672 82.1055 18.6875 81.5273 18.9062C80.9492 19.125 80.3477 19.2344 79.7227 19.2344C79.0273 19.2344 78.3711 19.1055 77.7539 18.8477C77.1445 18.582 76.6094 18.2227 76.1484 17.7695C75.6953 17.3086 75.3359 16.7734 75.0703 16.1641C74.8125 15.5469 74.6836 14.8906 74.6836 14.1953V2.19531H78.0469V14.1953C78.0469 14.4297 78.0898 14.6523 78.1758 14.8633C78.2617 15.0664 78.3789 15.2461 78.5273 15.4023C78.6836 15.5508 78.8633 15.668 79.0664 15.7539C79.2695 15.8398 79.4883 15.8828 79.7227 15.8828C79.957 15.8828 80.1758 15.8398 80.3789 15.7539C80.582 15.668 80.7578 15.5508 80.9062 15.4023C81.0625 15.2461 81.1836 15.0664 81.2695 14.8633C81.3555 14.6523 81.3984 14.4297 81.3984 14.1953V2.19531H84.7617V14.1953C84.7617 14.4297 84.8047 14.6523 84.8906 14.8633C84.9766 15.0664 85.0938 15.2461 85.2422 15.4023C85.3984 15.5508 85.5781 15.668 85.7812 15.7539C85.9844 15.8398 86.2031 15.8828 86.4375 15.8828C86.6719 15.8828 86.8906 15.8398 87.0938 15.7539C87.2969 15.668 87.4727 15.5508 87.6211 15.4023C87.7773 15.2461 87.8984 15.0664 87.9844 14.8633C88.0781 14.6523 88.125 14.4297 88.125 14.1953V2.19531H91.4766V14.1953ZM106.113 12.6133C106.113 13.5508 105.945 14.4258 105.609 15.2383C105.273 16.043 104.816 16.7422 104.238 17.3359C103.66 17.9219 102.98 18.3867 102.199 18.7305C101.426 19.0664 100.594 19.2344 99.7031 19.2344C98.8203 19.2344 97.9883 19.0664 97.207 18.7305C96.4336 18.3867 95.7539 17.9219 95.168 17.3359C94.5898 16.7422 94.1328 16.043 93.7969 15.2383C93.4609 14.4258 93.293 13.5508 93.293 12.6133C93.293 11.6602 93.4609 10.7773 93.7969 9.96484C94.1328 9.15234 94.5898 8.45312 95.168 7.86719C95.7539 7.27344 96.4336 6.80859 97.207 6.47266C97.9883 6.13672 98.8203 5.96875 99.7031 5.96875C100.594 5.96875 101.426 6.12891 102.199 6.44922C102.98 6.76172 103.66 7.21094 104.238 7.79688C104.816 8.375 105.273 9.07422 105.609 9.89453C105.945 10.707 106.113 11.6133 106.113 12.6133ZM102.891 12.6133C102.891 12.0977 102.805 11.6328 102.633 11.2188C102.469 10.7969 102.242 10.4375 101.953 10.1406C101.664 9.83594 101.324 9.60547 100.934 9.44922C100.551 9.28516 100.141 9.20312 99.7031 9.20312C99.2656 9.20312 98.8516 9.28516 98.4609 9.44922C98.0781 9.60547 97.7422 9.83594 97.4531 10.1406C97.1719 10.4375 96.9492 10.7969 96.7852 11.2188C96.6211 11.6328 96.5391 12.0977 96.5391 12.6133C96.5391 13.0977 96.6211 13.5469 96.7852 13.9609C96.9492 14.375 97.1719 14.7344 97.4531 15.0391C97.7422 15.3438 98.0781 15.5859 98.4609 15.7656C98.8516 15.9375 99.2656 16.0234 99.7031 16.0234C100.141 16.0234 100.551 15.9414 100.934 15.7773C101.324 15.6133 101.664 15.3828 101.953 15.0859C102.242 14.7891 102.469 14.4297 102.633 14.0078C102.805 13.5859 102.891 13.1211 102.891 12.6133ZM111.082 19H107.883V6.44922H108.656L109.711 7.9375C110.227 7.46875 110.812 7.10938 111.469 6.85938C112.125 6.60156 112.805 6.47266 113.508 6.47266H116.332V9.66016H113.508C113.172 9.66016 112.855 9.72266 112.559 9.84766C112.262 9.97266 112.004 10.1445 111.785 10.3633C111.566 10.582 111.395 10.8398 111.27 11.1367C111.145 11.4336 111.082 11.75 111.082 12.0859V19ZM129.715 19H128.941L127.699 17.2773C127.395 17.5508 127.07 17.8086 126.727 18.0508C126.391 18.2852 126.035 18.4922 125.66 18.6719C125.285 18.8438 124.898 18.9805 124.5 19.082C124.109 19.1836 123.711 19.2344 123.305 19.2344C122.422 19.2344 121.59 19.0703 120.809 18.7422C120.035 18.4062 119.355 17.9453 118.77 17.3594C118.191 16.7656 117.734 16.0664 117.398 15.2617C117.062 14.4492 116.895 13.5664 116.895 12.6133C116.895 11.668 117.062 10.7891 117.398 9.97656C117.734 9.16406 118.191 8.46094 118.77 7.86719C119.355 7.27344 120.035 6.80859 120.809 6.47266C121.59 6.13672 122.422 5.96875 123.305 5.96875C123.586 5.96875 123.875 5.99219 124.172 6.03906C124.477 6.08594 124.77 6.16406 125.051 6.27344C125.34 6.375 125.609 6.51172 125.859 6.68359C126.109 6.85547 126.32 7.06641 126.492 7.31641V1.45703H129.715V19ZM126.492 12.6133C126.492 12.1758 126.406 11.7539 126.234 11.3477C126.07 10.9336 125.844 10.5703 125.555 10.2578C125.266 9.9375 124.926 9.68359 124.535 9.49609C124.152 9.30078 123.742 9.20312 123.305 9.20312C122.867 9.20312 122.453 9.28125 122.062 9.4375C121.68 9.59375 121.344 9.82031 121.055 10.1172C120.773 10.4062 120.551 10.7617 120.387 11.1836C120.223 11.6055 120.141 12.082 120.141 12.6133C120.141 13.0742 120.223 13.5117 120.387 13.9258C120.551 14.3398 120.773 14.7031 121.055 15.0156C121.344 15.3281 121.68 15.5742 122.062 15.7539C122.453 15.9336 122.867 16.0234 123.305 16.0234C123.742 16.0234 124.152 15.9297 124.535 15.7422C124.926 15.5469 125.266 15.293 125.555 14.9805C125.844 14.6602 126.07 14.2969 126.234 13.8906C126.406 13.4766 126.492 13.0508 126.492 12.6133ZM139.055 19H131.742V15.8125H139.055C139.273 15.8125 139.461 15.7344 139.617 15.5781C139.773 15.4219 139.852 15.2344 139.852 15.0156C139.852 14.7891 139.773 14.6406 139.617 14.5703C139.461 14.5 139.273 14.4648 139.055 14.4648H135.727C135.172 14.4648 134.652 14.3594 134.168 14.1484C133.684 13.9375 133.262 13.6523 132.902 13.293C132.543 12.9258 132.258 12.5 132.047 12.0156C131.844 11.5312 131.742 11.0117 131.742 10.457C131.742 9.90234 131.844 9.38281 132.047 8.89844C132.258 8.41406 132.543 7.99219 132.902 7.63281C133.262 7.27344 133.684 6.99219 134.168 6.78906C134.652 6.57812 135.172 6.47266 135.727 6.47266H142.207V9.66016H135.727C135.508 9.66016 135.32 9.73828 135.164 9.89453C135.008 10.0508 134.93 10.2383 134.93 10.457C134.93 10.6836 135.008 10.8789 135.164 11.043C135.32 11.1992 135.508 11.2773 135.727 11.2773H139.055C139.602 11.2773 140.117 11.3711 140.602 11.5586C141.086 11.7383 141.508 11.9922 141.867 12.3203C142.227 12.6484 142.512 13.043 142.723 13.5039C142.934 13.9648 143.039 14.4688 143.039 15.0156C143.039 15.5703 142.934 16.0898 142.723 16.5742C142.512 17.0508 142.227 17.4727 141.867 17.8398C141.508 18.1992 141.086 18.4844 140.602 18.6953C140.117 18.8984 139.602 19 139.055 19Z" fill="#2580F5"/>
	</symbol>

   <symbol id="arrow-down" >
		<path d="M4.15806 13.2792L4.15806 1.17383M0.718462 10.6852L3.55002 13.5324C3.88583 13.8701 4.43029 13.8701 4.7661 13.5324L7.59766 10.6852" stroke="white" stroke-width="1.3" stroke-linecap="round"/>
	</symbol>

    <symbol id="close">
		<path d="M4.646 4.646a.5.5 0 0 1 .708 0L8 7.293l2.646-2.647a.5.5 0 0 1 .708.708L8.707 8l2.647 2.646a.5.5 0 0 1-.708.708L8 8.707l-2.646 2.647a.5.5 0 0 1-.708-.708L7.293 8 4.646 5.354a.5.5 0 0 1 0-.708"/>
	</symbol>

   <symbol id="check">
      <path fill-rule="evenodd" clip-rule="evenodd" d="M9.76169 0.1689C9.82976 0.22926 9.88567 0.302907 9.92622 0.385632C9.96677 0.468357 9.99117 0.558538 9.99801 0.651021C10.0049 0.743505 9.99401 0.836477 9.96611 0.924624C9.9382 1.01277 9.89378 1.09436 9.83538 1.16474L4.37648 7.75349C4.31528 7.82735 4.23998 7.88734 4.1553 7.92967C4.07063 7.97201 3.97841 7.99577 3.88443 7.99949C3.79046 8.0032 3.69676 7.98677 3.60921 7.95124C3.52166 7.91571 3.44215 7.86184 3.37568 7.79302L0.191327 4.49865C0.0670883 4.36544 -0.00160985 4.18709 2.865e-05 4.002C0.00166715 3.8169 0.0735111 3.63988 0.200087 3.50905C0.326663 3.37823 0.497842 3.30407 0.676757 3.30255C0.855672 3.30103 1.02801 3.37227 1.15664 3.50092L3.82059 6.25596L8.80001 0.246083C8.91782 0.104128 9.08528 0.016361 9.2656 0.00206531C9.44592 -0.0122304 9.62435 0.0471731 9.76169 0.1689Z" fill="#1E7EF9"/>
	</symbol>

   <symbol id="citation-mid" width="94" height="50" viewBox="0 0 94 50" fill="none" xmlns="http://www.w3.org/2000/svg">
      <path fill-rule="evenodd" clip-rule="evenodd" d="M46.7408 0.0260628C46.1193 0.058574 43.8896 0.170189 41.7859 0.273982C31.7151 0.770691 18.8935 2.17007 15.5593 3.13636C6.6896 5.70666 0.382419 12.8944 0.0185367 20.847C-0.211476 25.8702 1.70199 30.4246 5.59691 34.1243C7.88817 36.3009 10.3053 37.7403 13.4175 38.7815C16.3677 39.7687 17.9545 39.9667 22.0312 39.8561L25.5736 39.76L25.4941 41.1335C25.4284 42.2689 25.3039 42.7307 24.7766 43.7978C23.9558 45.4585 22.8292 46.5065 19.829 48.4003C18.5661 49.1975 17.5329 49.8941 17.5329 49.9484C17.5329 50.1217 22.3464 49.824 23.685 49.568C25.4672 49.227 28.0051 48.3551 29.3551 47.6201C32.5816 45.8632 35.2645 43.0245 36.3546 40.2139L36.7423 39.2143H41.9012C50.4893 39.2143 59.3228 39.7388 68.5599 40.7974C74.8088 41.5137 76.797 41.3647 80.556 39.8993C88.0426 36.9804 93.2908 29.3762 93.6277 20.9593C93.7684 17.4488 93.1517 14.5116 91.6385 11.4841C89.6527 7.51112 85.7684 3.85717 81.7538 2.18606C77.696 0.496693 73.3606 0.106558 57.6938 0.0206722C52.2912 -0.00888343 47.3624 -0.00644841 46.7408 0.0260628ZM69.6899 1.81922C75.1464 2.18467 76.9867 2.54403 79.5492 3.74486C84.2483 5.94693 87.544 9.81733 89.0998 14.9612C89.5386 16.4122 89.5732 16.7534 89.5764 19.6554C89.5793 22.5181 89.5395 22.9329 89.1092 24.5234C88.512 26.7313 87.0485 29.7269 85.6792 31.544C82.9364 35.1841 78.876 37.6928 74.4971 38.4535C72.5361 38.794 70.5192 38.7181 65.2566 38.1057C58.3915 37.3069 51.61 36.8788 42.6552 36.6793L37.4395 36.5628L37.4774 35.0634L37.5155 33.5639L37.0855 35.1045C35.7077 40.0427 32.8335 43.5885 28.5257 45.6643C27.4342 46.1904 25.5139 46.9057 25.427 46.8186C25.4015 46.7932 25.6469 46.35 25.9724 45.834C26.946 44.2898 27.1831 43.3764 27.172 41.2136C27.1633 39.507 27.1037 39.1466 26.6184 37.865C26.3194 37.0751 25.8013 35.9788 25.467 35.4285C24.794 34.3205 22.6535 31.7384 22.4082 31.7384C22.3221 31.7384 22.5982 32.3055 23.0215 32.9989C23.4447 33.6922 24.0633 34.8852 24.3959 35.6502L25.0005 37.041L24.4397 37.1793C24.1311 37.2552 22.3531 37.3312 20.4884 37.3483C16.7173 37.3825 15.3075 37.1605 12.5541 36.0987C9.47704 34.912 6.18541 32.4145 4.39903 29.9112C3.37919 28.4823 2.31848 26.2226 1.86959 24.5234C1.35966 22.593 1.35775 19.5125 1.86559 17.5691C3.44681 11.5163 8.90766 6.32177 15.6677 4.43994C18.7657 3.57761 32.0805 2.1871 42.2205 1.6671C46.0902 1.46873 66.1099 1.57965 69.6899 1.81922Z" fill="#BECCE0"/>
	</symbol>

   <symbol id="citation-top" width="112" height="46" viewBox="0 0 112 46" fill="none" xmlns="http://www.w3.org/2000/svg">
      <path fill-rule="evenodd" clip-rule="evenodd" d="M32.6188 0.167146C24.6866 0.390666 19.2425 0.721013 17.6182 1.07738C7.3954 3.32056 0 10.709 0 18.679C0 20.9328 0.358214 22.4543 1.39638 24.6109C2.46494 26.8303 4.20882 29.1539 6.47079 31.3723C11.7411 36.5411 18.7397 39.4878 25.7729 39.4993C28.149 39.5032 29.0106 39.3992 32.6188 38.6732C38.7287 37.4438 43.5644 36.787 49.6325 36.362C53.2959 36.1056 67.6576 36.203 68.3331 36.4887C68.6607 36.6273 68.6975 36.8144 68.6116 37.9021C68.4136 40.4108 67.2387 41.8145 63.5977 43.8933C62.2847 44.6429 61.2105 45.3167 61.2105 45.3904C61.2105 45.5904 65.2875 46.0016 67.251 46C70.8677 45.9967 75.0365 45.0185 78.1004 43.4543C79.9754 42.4969 82.4826 40.6058 83.4734 39.4017L84.0638 38.684L87.3861 38.5692C89.9128 38.482 91.2146 38.3332 92.8225 37.9477C98.4096 36.6089 102.636 34.3409 106.351 30.6878C110.233 26.8706 112.01 23.3256 112 19.4152C111.984 12.8679 106.316 6.52068 97.9403 3.66937C95.1898 2.73333 93.372 2.41401 88.355 1.98601C68.1909 0.266008 50.0813 -0.324925 32.6188 0.167146ZM56.4788 1.99358C66.2882 2.32087 74.2701 2.79104 84.5654 3.64828C88.4943 3.97537 90.2291 4.21199 91.962 4.65678C100.702 6.90058 106.762 13.2373 106.251 19.5962C106.053 22.0459 104.707 24.7799 102.347 27.5256C99.2496 31.1279 93.1487 34.3549 87.8413 35.1982C87.0396 35.3255 86.3469 35.3904 86.3018 35.3423C86.2567 35.294 86.5231 34.3336 86.8938 33.2078C87.2645 32.082 87.6209 30.5161 87.6859 29.7281L87.8039 28.2952L87.1934 29.9184C84.2398 37.7699 79.3564 41.7456 71.0767 43.0388C70.0246 43.2029 69.0567 43.338 68.9259 43.3386C68.7948 43.3393 68.999 42.8697 69.3793 42.2951C70.3561 40.8197 70.7511 39.2946 70.6176 37.5165C70.4219 34.9104 68.8655 31.7203 66.7807 29.6532L65.8794 28.7595L66.8528 30.7789C67.3882 31.8896 67.8881 33.0182 67.9636 33.2868C68.0856 33.7209 68.0482 33.7623 67.6257 33.6591C66.3208 33.3406 58.0332 33.0575 53.2572 33.1685C45.3765 33.3517 39.331 34.019 31.457 35.5742C26.8078 36.4926 23.9722 36.623 20.8166 36.0636C15.8257 35.1789 10.6748 32.4521 7.06821 28.7857C4.28152 25.9528 2.45667 22.9285 1.8941 20.21C0.35236 12.7604 7.33259 4.85206 17.2288 2.83669C19.0639 2.46293 23.6615 2.18271 32.2161 1.92337C37.0779 1.77579 51.1758 1.81673 56.4788 1.99358Z" fill="#BECCE0"/>
	</symbol>

   <symbol id="comment" width="18" height="18" viewBox="0 0 18 18" fill="none" xmlns="http://www.w3.org/2000/svg">
      <path d="M17.0001 8.99999C17.0016 10.0504 16.7957 11.0907 16.3943 12.0613C15.9928 13.032 15.4037 13.9138 14.6606 14.6562C13.9173 15.3996 13.0348 15.9892 12.0636 16.3914C11.0923 16.7935 10.0513 17.0003 9.00007 17C7.86863 17.0028 6.74963 16.7639 5.71792 16.2994L2.37349 16.7941C2.20743 16.8213 2.03727 16.8074 1.87778 16.7538C1.71829 16.7002 1.57429 16.6085 1.4583 16.4867C1.3423 16.3648 1.25781 16.2164 1.21217 16.0545C1.16653 15.8925 1.16112 15.7219 1.19641 15.5574L1.66084 12.1645C1.22014 11.168 0.99497 10.0896 1.00009 8.99999C0.998648 7.94963 1.20456 6.90931 1.60602 5.93869C2.00747 4.96808 2.59657 4.08625 3.33954 3.34378C4.08279 2.60036 4.96528 2.01071 5.93655 1.60855C6.90783 1.20639 7.94883 0.9996 9.00007 1C11.123 1.00014 13.159 1.84316 14.6606 3.34378C15.4033 4.08648 15.9922 4.96835 16.3936 5.93891C16.795 6.90948 17.0011 7.94968 17.0001 8.99999Z" stroke="inherit" stroke-width="1.5" stroke-linecap="round" stroke-linejoin="round"/>
      <path d="M9.00035 9.52768C9.14038 9.52768 9.27468 9.47205 9.3737 9.37303C9.47272 9.27401 9.52835 9.13971 9.52835 8.99968C9.52835 8.85965 9.47272 8.72535 9.3737 8.62633C9.27468 8.52731 9.14038 8.47168 9.00035 8.47168C8.86031 8.47168 8.72601 8.52731 8.62699 8.62633C8.52798 8.72535 8.47235 8.85965 8.47235 8.99968C8.47235 9.13971 8.52798 9.27401 8.62699 9.37303C8.72601 9.47205 8.86031 9.52768 9.00035 9.52768ZM12.7011 9.52768C12.8411 9.52768 12.9754 9.47205 13.0744 9.37303C13.1735 9.27401 13.2291 9.13971 13.2291 8.99968C13.2291 8.85965 13.1735 8.72535 13.0744 8.62633C12.9754 8.52731 12.8411 8.47168 12.7011 8.47168C12.5611 8.47168 12.4268 8.52731 12.3277 8.62633C12.2287 8.72535 12.1731 8.85965 12.1731 8.99968C12.1731 9.13971 12.2287 9.27401 12.3277 9.37303C12.4268 9.47205 12.5611 9.52768 12.7011 9.52768ZM5.2996 9.52768C5.36893 9.52773 5.4376 9.51413 5.50168 9.48765C5.56577 9.46117 5.624 9.42233 5.67307 9.37334C5.72214 9.32435 5.76108 9.26617 5.78767 9.20213C5.81426 9.1381 5.82797 9.06945 5.82803 9.00011C5.82808 8.93077 5.81448 8.8621 5.788 8.79802C5.76152 8.73394 5.72267 8.6757 5.67369 8.62663C5.6247 8.57756 5.56652 8.53862 5.50248 8.51204C5.43845 8.48545 5.3698 8.47174 5.30046 8.47168C5.16043 8.47168 5.02613 8.52731 4.92711 8.62633C4.82809 8.72535 4.77246 8.85965 4.77246 8.99968C4.77246 9.13971 4.82809 9.27401 4.92711 9.37303C5.02613 9.47205 5.15956 9.52768 5.2996 9.52768Z" stroke="inherit" stroke-width="1.5" stroke-linecap="round" stroke-linejoin="round"/>
	</symbol>

   <symbol id="download">
      <path fill-rule="evenodd" clip-rule="evenodd" d="M0 15.9375C0 15.6557 0.111942 15.3855 0.311199 15.1862C0.510456 14.9869 0.780707 14.875 1.0625 14.875H13.8125C14.0943 14.875 14.3645 14.9869 14.5638 15.1862C14.7631 15.3855 14.875 15.6557 14.875 15.9375C14.875 16.2193 14.7631 16.4895 14.5638 16.6888C14.3645 16.8881 14.0943 17 13.8125 17H1.0625C0.780707 17 0.510456 16.8881 0.311199 16.6888C0.111942 16.4895 0 16.2193 0 15.9375ZM3.49881 7.74881C3.69806 7.54962 3.96826 7.43773 4.25 7.43773C4.53174 7.43773 4.80194 7.54962 5.00119 7.74881L6.375 9.12263V1.0625C6.375 0.780707 6.48694 0.510456 6.6862 0.311199C6.88546 0.111942 7.15571 0 7.4375 0C7.71929 0 7.98954 0.111942 8.1888 0.311199C8.38806 0.510456 8.5 0.780707 8.5 1.0625V9.12263L9.87381 7.74881C9.97182 7.64733 10.0891 7.56639 10.2187 7.5107C10.3483 7.45502 10.4877 7.42571 10.6288 7.42448C10.7699 7.42326 10.9098 7.45014 11.0404 7.50356C11.171 7.55699 11.2896 7.63588 11.3894 7.73564C11.4891 7.8354 11.568 7.95403 11.6214 8.08461C11.6749 8.21519 11.7017 8.3551 11.7005 8.49618C11.6993 8.63725 11.67 8.77668 11.6143 8.9063C11.5586 9.03593 11.4777 9.15318 11.3762 9.25119L8.18869 12.4387C7.98944 12.6379 7.71924 12.7498 7.4375 12.7498C7.15576 12.7498 6.88556 12.6379 6.68631 12.4387L3.49881 9.25119C3.29962 9.05194 3.18773 8.78174 3.18773 8.5C3.18773 8.21826 3.29962 7.94806 3.49881 7.74881Z" fill="inherit"/>
	</symbol>

   <symbol id="mail">
      <path d="M1 4L8.89 9.26C9.21866 9.47928 9.6049 9.5963 10 9.5963C10.3951 9.5963 10.7813 9.47928 11.11 9.26L19 4M3 15H17C17.5304 15 18.0391 14.7893 18.4142 14.4142C18.7893 14.0391 19 13.5304 19 13V3C19 2.46957 18.7893 1.96086 18.4142 1.58579C18.0391 1.21071 17.5304 1 17 1H3C2.46957 1 1.96086 1.21071 1.58579 1.58579C1.21071 1.96086 1 2.46957 1 3V13C1 13.5304 1.21071 14.0391 1.58579 14.4142C1.96086 14.7893 2.46957 15 3 15Z" stroke="#1E7EF9" stroke-width="2" stroke-linecap="round" stroke-linejoin="round"/>
	</symbol>

   <symbol id="slider-right">
      <path fill-rule="evenodd" clip-rule="evenodd" d="M21.43 0.304393C19.0814 0.924526 16.8118 2.04861 16.8118 2.59161C16.8118 3.01292 16.9773 2.98878 18.1534 2.39457C19.6474 1.63995 21.2178 1.14376 23.184 0.805096C24.1488 0.639003 24.9763 0.464822 25.0233 0.417992C25.5196 -0.0785029 23.1626 -0.15305 21.43 0.304393ZM41.9283 0.429821C41.4388 0.519754 41.09 0.78291 41.2077 0.973309C41.255 1.04979 42.1838 1.112 43.2719 1.11152C45.6791 1.11038 47.228 1.4591 49.2202 2.45063C50.3267 3.00141 50.8842 3.42402 52.0559 4.59996C53.5091 6.05849 54.1114 6.99979 55.0486 9.27663C55.2878 9.85739 55.4445 10.0436 55.6577 9.99982C56.4889 9.82871 55.2462 6.71135 53.5564 4.72796C51.06 1.79776 47.7879 0.285269 44.0494 0.333233C43.1057 0.345386 42.1511 0.388825 41.9283 0.429821ZM23.2935 2.01133C21.104 2.45046 18.4608 3.58929 17.4587 4.5254C17.1526 4.81157 16.6668 5.02661 16.0509 5.14879C13.2492 5.70459 10.5175 8.27764 9.76061 11.0737C9.4806 12.1078 9.46148 12.1316 8.41923 12.7393C6.35515 13.9423 4.82013 15.9061 4.25865 18.0616C3.59558 20.6075 4.34924 23.382 6.15649 25.048L6.86704 25.7028L6.49774 26.6901C5.59015 29.117 5.74183 32.1527 6.88389 34.4182C8.34551 37.3181 11.3386 39.5708 14.4118 40.0845C14.8612 40.1596 15.0942 40.321 15.3493 40.7339C15.5361 41.0361 16.1421 41.7029 16.696 42.2159C18.7064 44.0776 22.0921 45.1674 28.2309 45.9285C34.2824 46.6787 39.064 45.4119 41.991 42.2827L42.7618 41.4586L43.6111 42.2347C46.9837 45.3171 52.886 45.5227 57.5653 42.721C59.1465 41.7742 61.5679 39.2964 62.5599 37.6102C64.0068 35.1506 64.7781 32.4685 64.7734 29.9138C64.7695 27.8754 64.4331 26.4321 63.5403 24.6236C62.907 23.3409 62.5424 22.8483 61.3086 21.6098C59.6713 19.9663 58.2219 19.1074 56.5205 18.7726L55.5746 18.5866L55.5667 16.7813C55.5422 11.1437 52.1557 5.78967 47.1904 3.53826C45.2464 2.65692 43.6996 2.34546 41.2801 2.3487C38.8398 2.35178 37.2206 2.66518 35.2165 3.52222L34.0952 4.0017L33.0993 3.45431C31.0046 2.30285 28.7261 1.76147 26.0745 1.7848C25.1243 1.79323 23.8728 1.89514 23.2935 2.01133ZM29.4174 3.48574C30.1043 3.62753 31.1648 3.93736 31.7739 4.17426L32.8815 4.60498L32.3411 5.00085C31.3071 5.75839 29.1453 8.04073 29.0312 8.49542C28.9024 9.00877 29.1082 9.44014 29.5208 9.52116C29.6972 9.55583 30.4308 8.96146 31.5289 7.8941C34.3571 5.14506 36.8344 4.07477 40.713 3.92618C43.3612 3.82474 44.7049 4.08353 46.7085 5.08041C48.5044 5.97406 49.7461 6.9429 50.9216 8.36806C51.9258 9.58547 53.2607 12.1837 53.6632 13.7038C54.0652 15.2221 54.22 17.4515 54.0414 19.1485C53.7889 21.5479 53.7789 21.4508 54.2849 21.509C54.5476 21.5391 54.7625 21.4725 54.8067 21.3469C54.8482 21.2296 54.9532 20.9384 55.0402 20.7001L55.1983 20.2668L56.2183 20.5756C58.9444 21.4011 60.7207 22.864 61.9302 25.28C62.8023 27.022 63.0742 28.4635 62.9418 30.6428C62.7592 33.6491 61.4096 36.6801 59.2333 38.9711C57.8041 40.4758 56.2275 41.5359 54.3301 42.268C52.9312 42.8077 52.7723 42.8332 50.7596 42.8374C48.8601 42.8413 48.5257 42.797 47.3583 42.3869C45.8792 41.8672 44.5895 41.127 43.5139 40.1802C43.1047 39.82 42.6406 39.5252 42.4828 39.5252C42.3248 39.5252 41.6014 40.1303 40.8752 40.8697C37.4582 44.3487 32.8943 45.1507 25.076 43.6461C19.3471 42.5436 16.6391 41.04 15.8728 38.5361C15.6225 37.7186 15.481 37.4885 15.2024 37.4467C14.6619 37.3657 14.349 37.7133 14.4694 38.2615C14.5671 38.7063 14.5501 38.7235 14.1121 38.6232C13.859 38.5653 13.0687 38.2398 12.3557 37.9C10.6181 37.0716 9.3871 35.8425 8.54626 34.0969C7.1566 31.2115 7.25917 28.5442 8.88461 25.3043C9.56875 23.9406 9.68282 23.5984 9.51851 23.4003C9.2108 23.0296 8.85771 23.1095 8.25929 23.6857L7.7124 24.2123L7.3107 23.7262C7.08983 23.4588 6.7126 22.8755 6.47262 22.4299C6.07416 21.6903 6.03608 21.4641 6.03608 19.8372C6.03608 18.2208 6.07611 17.9792 6.4655 17.2445C7.47113 15.3474 8.82093 14.1546 11.2619 13.0054C12.3923 12.4732 12.7608 12.2227 12.7608 11.9865C12.7608 11.5747 12.4883 11.4224 11.8308 11.4666L11.2935 11.5028L11.5476 10.8897C12.34 8.97766 13.999 7.43244 15.961 6.77925C17.4526 6.28275 19.4262 6.28437 20.7819 6.78346C22.1861 7.30054 22.5808 7.35659 22.6964 7.05568C22.8766 6.58609 21.7739 5.86354 20.0582 5.32719L19.1726 5.05042L20.1392 4.56657C22.0968 3.5867 23.5601 3.26636 26.1766 3.24448C27.4299 3.23411 28.6315 3.32354 29.4174 3.48574ZM55.3171 5.13955C55.2671 5.22041 55.4761 5.78951 55.7815 6.40429C56.4305 7.71051 56.8 9.03308 56.9426 10.5597C57.0498 11.7095 57.2495 12.062 57.6518 11.8119C58.026 11.5792 57.9046 9.70183 57.4164 8.17021C56.7661 6.13043 55.6767 4.55766 55.3171 5.13955ZM5.26866 12.871C4.1018 13.7307 3.41684 14.5371 2.78439 15.7954C2.02442 17.3077 1.78412 18.7236 2.01535 20.3285C2.28077 22.1716 3.19112 23.7192 3.70658 23.2038C3.85339 23.057 3.78856 22.7194 3.42754 21.749C3.02713 20.6732 2.95811 20.2558 2.96313 18.9406C2.96848 17.5074 3.01077 17.3089 3.54988 16.1859C4.14668 14.9427 5.18245 13.7198 6.09523 13.1807C6.61959 12.8709 6.71796 12.4207 6.27737 12.3463C6.14465 12.324 5.69078 12.5601 5.26866 12.871ZM56.2588 12.8375C56.138 13.152 56.6044 15.8623 56.8155 16.0735C56.951 16.2089 57.0461 16.2081 57.1839 16.0704C57.3754 15.8789 57.1325 13.8109 56.8227 12.996C56.6677 12.5884 56.3848 12.5089 56.2588 12.8375ZM0.710432 15.6646C0.206645 16.6617 -0.101569 18.1747 0.0306568 19.0014C0.164503 19.8385 0.585989 20.7284 0.848658 20.7284C1.0026 20.7284 1.04781 20.2417 1.03274 18.7434C1.01475 16.9558 1.05022 16.6884 1.38872 16.054C1.59549 15.6666 1.72529 15.2474 1.67732 15.1223C1.50604 14.6757 1.09301 14.9073 0.710432 15.6646ZM58.5638 17.5584C58.5055 17.7106 58.7106 17.93 59.1541 18.1904C61.0615 19.3101 62.5345 20.9368 63.6164 23.1185C64.473 24.8456 64.9837 24.6213 64.2988 22.8188C63.9138 21.8054 62.4308 19.8357 61.4439 19.0272C60.7117 18.4271 58.9786 17.3256 58.767 17.3256C58.7045 17.3256 58.6131 17.4304 58.5638 17.5584ZM62.9893 18.9487C62.8101 19.0594 62.8221 19.1958 63.0564 19.7155C63.4557 20.6011 64.0358 21.2907 64.2631 21.1501C64.5537 20.9707 64.4913 20.6012 64.0264 19.7469C63.5723 18.9131 63.3385 18.7329 62.9893 18.9487ZM61.6163 42.1443C60.304 43.4565 58.809 44.4962 57.1291 45.2649C55.0767 46.204 53.9952 46.4099 51.0102 46.4298C48.4305 46.447 47.9577 46.5407 48.4451 46.938C48.7289 47.1692 50.7584 47.4666 52.006 47.4596C54.354 47.4466 57.2244 46.5984 59.4432 45.2618C61.0255 44.3087 63.3652 41.964 63.2858 41.4109C63.1985 40.8007 62.7735 40.9873 61.6163 42.1443ZM16.3894 44.4144C16.0592 44.9488 19.719 47.0077 22.1592 47.6604C23.2771 47.9593 23.9485 48.0277 25.7241 48.0232C28.1847 48.017 29.208 47.7816 29.208 47.2216C29.208 46.9278 29.1264 46.9056 28.3168 46.9792C26.4671 47.1474 23.2235 47.0336 22.1059 46.7614C20.627 46.401 18.8226 45.6358 17.6214 44.8595C16.5142 44.1437 16.549 44.1564 16.3894 44.4144ZM60.2962 45.2913C59.8712 45.94 58.6699 46.781 57.6235 47.1626C56.8983 47.4269 56.6741 47.585 56.6741 47.8321C56.6741 48.1186 56.7557 48.1463 57.3885 48.075C58.2488 47.9781 59.443 47.423 60.1759 46.7797C60.8277 46.2074 61.4336 45.2635 61.294 45.0376C61.1059 44.7333 60.5731 44.8687 60.2962 45.2913ZM22.8683 48.8366C22.7129 49.2417 22.9258 49.3555 24.3468 49.6271C26.2513 49.9909 27.6481 50.0886 28.5335 49.9199C29.4671 49.7418 29.7483 49.5247 29.4734 49.1936C29.3266 49.0168 28.619 48.9455 26.4096 48.8852C24.8295 48.8421 23.4095 48.7527 23.2543 48.6864C23.062 48.6043 22.9391 48.6521 22.8683 48.8366Z" fill="inherit"/>
      <path d="M37.92 24.6241C37.8724 24.5013 37.801 24.3892 37.71 24.2941L32.71 19.2941C32.6168 19.2009 32.5061 19.1269 32.3842 19.0764C32.2624 19.026 32.1319 19 32 19C31.7337 19 31.4783 19.1058 31.29 19.2941C31.1968 19.3873 31.1228 19.498 31.0723 19.6198C31.0219 19.7417 30.9959 19.8722 30.9959 20.0041C30.9959 20.2704 31.1017 20.5258 31.29 20.7141L34.59 24.0041H27C26.7348 24.0041 26.4804 24.1094 26.2929 24.297C26.1054 24.4845 26 24.7389 26 25.0041C26 25.2693 26.1054 25.5237 26.2929 25.7112C26.4804 25.8987 26.7348 26.0041 27 26.0041H34.59L31.29 29.2941C31.1963 29.3871 31.1219 29.4977 31.0711 29.6195C31.0203 29.7414 30.9942 29.8721 30.9942 30.0041C30.9942 30.1361 31.0203 30.2668 31.0711 30.3887C31.1219 30.5105 31.1963 30.6211 31.29 30.7141C31.383 30.8078 31.4936 30.8822 31.6154 30.933C31.7373 30.9838 31.868 31.0099 32 31.0099C32.132 31.0099 32.2627 30.9838 32.3846 30.933C32.5064 30.8822 32.617 30.8078 32.71 30.7141L37.71 25.7141C37.801 25.619 37.8724 25.5068 37.92 25.3841C38.02 25.1406 38.02 24.8676 37.92 24.6241Z" fill="inherit"/>
	</symbol>

   <symbol id="slider-left">
	<path fill-rule="evenodd" clip-rule="evenodd" d="M21.43 0.304393C19.0814 0.924526 16.8118 2.04861 16.8118 2.59161C16.8118 3.01292 16.9773 2.98878 18.1534 2.39457C19.6474 1.63995 21.2178 1.14376 23.184 0.805096C24.1488 0.639003 24.9763 0.464822 25.0233 0.417992C25.5196 -0.0785029 23.1626 -0.15305 21.43 0.304393ZM41.9283 0.429821C41.4388 0.519754 41.09 0.78291 41.2077 0.973309C41.255 1.04979 42.1838 1.112 43.2719 1.11152C45.6791 1.11038 47.228 1.4591 49.2202 2.45063C50.3267 3.00141 50.8842 3.42402 52.0559 4.59996C53.5091 6.05849 54.1114 6.99979 55.0486 9.27663C55.2878 9.85739 55.4445 10.0436 55.6577 9.99982C56.4889 9.82871 55.2462 6.71135 53.5564 4.72796C51.06 1.79776 47.7879 0.285269 44.0494 0.333233C43.1057 0.345386 42.1511 0.388825 41.9283 0.429821ZM23.2935 2.01133C21.104 2.45046 18.4608 3.58929 17.4587 4.5254C17.1526 4.81157 16.6668 5.02661 16.0509 5.14879C13.2492 5.70459 10.5175 8.27764 9.76061 11.0737C9.4806 12.1078 9.46148 12.1316 8.41923 12.7393C6.35515 13.9423 4.82013 15.9061 4.25865 18.0616C3.59558 20.6075 4.34924 23.382 6.15649 25.048L6.86704 25.7028L6.49774 26.6901C5.59015 29.117 5.74183 32.1527 6.88389 34.4182C8.34551 37.3181 11.3386 39.5708 14.4118 40.0845C14.8612 40.1596 15.0942 40.321 15.3493 40.7339C15.5361 41.0361 16.1421 41.7029 16.696 42.2159C18.7064 44.0776 22.0921 45.1674 28.2309 45.9285C34.2824 46.6787 39.064 45.4119 41.991 42.2827L42.7618 41.4586L43.6111 42.2347C46.9837 45.3171 52.886 45.5227 57.5653 42.721C59.1465 41.7742 61.5679 39.2964 62.5599 37.6102C64.0068 35.1506 64.7781 32.4685 64.7734 29.9138C64.7695 27.8754 64.4331 26.4321 63.5403 24.6236C62.907 23.3409 62.5424 22.8483 61.3086 21.6098C59.6713 19.9663 58.2219 19.1074 56.5205 18.7726L55.5746 18.5866L55.5667 16.7813C55.5422 11.1437 52.1557 5.78967 47.1904 3.53826C45.2464 2.65692 43.6996 2.34546 41.2801 2.3487C38.8398 2.35178 37.2206 2.66518 35.2165 3.52222L34.0952 4.0017L33.0993 3.45431C31.0046 2.30285 28.7261 1.76147 26.0745 1.7848C25.1243 1.79323 23.8728 1.89514 23.2935 2.01133ZM29.4174 3.48574C30.1043 3.62753 31.1648 3.93736 31.7739 4.17426L32.8815 4.60498L32.3411 5.00085C31.3071 5.75839 29.1453 8.04073 29.0312 8.49542C28.9024 9.00877 29.1082 9.44014 29.5208 9.52116C29.6972 9.55583 30.4308 8.96146 31.5289 7.8941C34.3571 5.14506 36.8344 4.07477 40.713 3.92618C43.3612 3.82474 44.7049 4.08353 46.7085 5.08041C48.5044 5.97406 49.7461 6.9429 50.9216 8.36806C51.9258 9.58547 53.2607 12.1837 53.6632 13.7038C54.0652 15.2221 54.22 17.4515 54.0414 19.1485C53.7889 21.5479 53.7789 21.4508 54.2849 21.509C54.5476 21.5391 54.7625 21.4725 54.8067 21.3469C54.8482 21.2296 54.9532 20.9384 55.0402 20.7001L55.1983 20.2668L56.2183 20.5756C58.9444 21.4011 60.7207 22.864 61.9302 25.28C62.8023 27.022 63.0742 28.4635 62.9418 30.6428C62.7592 33.6491 61.4096 36.6801 59.2333 38.9711C57.8041 40.4758 56.2275 41.5359 54.3301 42.268C52.9312 42.8077 52.7723 42.8332 50.7596 42.8374C48.8601 42.8413 48.5257 42.797 47.3583 42.3869C45.8792 41.8672 44.5895 41.127 43.5139 40.1802C43.1047 39.82 42.6406 39.5252 42.4828 39.5252C42.3248 39.5252 41.6014 40.1303 40.8752 40.8697C37.4582 44.3487 32.8943 45.1507 25.076 43.6461C19.3471 42.5436 16.6391 41.04 15.8728 38.5361C15.6225 37.7186 15.481 37.4885 15.2024 37.4467C14.6619 37.3657 14.349 37.7133 14.4694 38.2615C14.5671 38.7063 14.5501 38.7235 14.1121 38.6232C13.859 38.5653 13.0687 38.2398 12.3557 37.9C10.6181 37.0716 9.3871 35.8425 8.54626 34.0969C7.1566 31.2115 7.25917 28.5442 8.88461 25.3043C9.56875 23.9406 9.68282 23.5984 9.51851 23.4003C9.2108 23.0296 8.85771 23.1095 8.25929 23.6857L7.7124 24.2123L7.3107 23.7262C7.08983 23.4588 6.7126 22.8755 6.47262 22.4299C6.07416 21.6903 6.03608 21.4641 6.03608 19.8372C6.03608 18.2208 6.07611 17.9792 6.4655 17.2445C7.47113 15.3474 8.82093 14.1546 11.2619 13.0054C12.3923 12.4732 12.7608 12.2227 12.7608 11.9865C12.7608 11.5747 12.4883 11.4224 11.8308 11.4666L11.2935 11.5028L11.5476 10.8897C12.34 8.97766 13.999 7.43244 15.961 6.77925C17.4526 6.28275 19.4262 6.28437 20.7819 6.78346C22.1861 7.30054 22.5808 7.35659 22.6964 7.05568C22.8766 6.58609 21.7739 5.86354 20.0582 5.32719L19.1726 5.05042L20.1392 4.56657C22.0968 3.5867 23.5601 3.26636 26.1766 3.24448C27.4299 3.23411 28.6315 3.32354 29.4174 3.48574ZM55.3171 5.13955C55.2671 5.22041 55.4761 5.78951 55.7815 6.40429C56.4305 7.71051 56.8 9.03308 56.9426 10.5597C57.0498 11.7095 57.2495 12.062 57.6518 11.8119C58.026 11.5792 57.9046 9.70183 57.4164 8.17021C56.7661 6.13043 55.6767 4.55766 55.3171 5.13955ZM5.26866 12.871C4.1018 13.7307 3.41684 14.5371 2.78439 15.7954C2.02442 17.3077 1.78412 18.7236 2.01535 20.3285C2.28077 22.1716 3.19112 23.7192 3.70658 23.2038C3.85339 23.057 3.78856 22.7194 3.42754 21.749C3.02713 20.6732 2.95811 20.2558 2.96313 18.9406C2.96848 17.5074 3.01077 17.3089 3.54988 16.1859C4.14668 14.9427 5.18245 13.7198 6.09523 13.1807C6.61959 12.8709 6.71796 12.4207 6.27737 12.3463C6.14465 12.324 5.69078 12.5601 5.26866 12.871ZM56.2588 12.8375C56.138 13.152 56.6044 15.8623 56.8155 16.0735C56.951 16.2089 57.0461 16.2081 57.1839 16.0704C57.3754 15.8789 57.1325 13.8109 56.8227 12.996C56.6677 12.5884 56.3848 12.5089 56.2588 12.8375ZM0.710432 15.6646C0.206645 16.6617 -0.101569 18.1747 0.0306568 19.0014C0.164503 19.8385 0.585989 20.7284 0.848658 20.7284C1.0026 20.7284 1.04781 20.2417 1.03274 18.7434C1.01475 16.9558 1.05022 16.6884 1.38872 16.054C1.59549 15.6666 1.72529 15.2474 1.67732 15.1223C1.50604 14.6757 1.09301 14.9073 0.710432 15.6646ZM58.5638 17.5584C58.5055 17.7106 58.7106 17.93 59.1541 18.1904C61.0615 19.3101 62.5345 20.9368 63.6164 23.1185C64.473 24.8456 64.9837 24.6213 64.2988 22.8188C63.9138 21.8054 62.4308 19.8357 61.4439 19.0272C60.7117 18.4271 58.9786 17.3256 58.767 17.3256C58.7045 17.3256 58.6131 17.4304 58.5638 17.5584ZM62.9893 18.9487C62.8101 19.0594 62.8221 19.1958 63.0564 19.7155C63.4557 20.6011 64.0358 21.2907 64.2631 21.1501C64.5537 20.9707 64.4913 20.6012 64.0264 19.7469C63.5723 18.9131 63.3385 18.7329 62.9893 18.9487ZM61.6163 42.1443C60.304 43.4565 58.809 44.4962 57.1291 45.2649C55.0767 46.204 53.9952 46.4099 51.0102 46.4298C48.4305 46.447 47.9577 46.5407 48.4451 46.938C48.7289 47.1692 50.7584 47.4666 52.006 47.4596C54.354 47.4466 57.2244 46.5984 59.4432 45.2618C61.0255 44.3087 63.3652 41.964 63.2858 41.4109C63.1985 40.8007 62.7735 40.9873 61.6163 42.1443ZM16.3894 44.4144C16.0592 44.9488 19.719 47.0077 22.1592 47.6604C23.2771 47.9593 23.9485 48.0277 25.7241 48.0232C28.1847 48.017 29.208 47.7816 29.208 47.2216C29.208 46.9278 29.1264 46.9056 28.3168 46.9792C26.4671 47.1474 23.2235 47.0336 22.1059 46.7614C20.627 46.401 18.8226 45.6358 17.6214 44.8595C16.5142 44.1437 16.549 44.1564 16.3894 44.4144ZM60.2962 45.2913C59.8712 45.94 58.6699 46.781 57.6235 47.1626C56.8983 47.4269 56.6741 47.585 56.6741 47.8321C56.6741 48.1186 56.7557 48.1463 57.3885 48.075C58.2488 47.9781 59.443 47.423 60.1759 46.7797C60.8277 46.2074 61.4336 45.2635 61.294 45.0376C61.1059 44.7333 60.5731 44.8687 60.2962 45.2913ZM22.8683 48.8366C22.7129 49.2417 22.9258 49.3555 24.3468 49.6271C26.2513 49.9909 27.6481 50.0886 28.5335 49.9199C29.4671 49.7418 29.7483 49.5247 29.4734 49.1936C29.3266 49.0168 28.619 48.9455 26.4096 48.8852C24.8295 48.8421 23.4095 48.7527 23.2543 48.6864C23.062 48.6043 22.9391 48.6521 22.8683 48.8366Z" fill="inherit"/>
   <path d="M26.075 25.3857C26.1226 25.5084 26.194 25.6206 26.285 25.7157L31.285 30.7157C31.3782 30.8089 31.4889 30.8829 31.6107 30.9333C31.7326 30.9838 31.8631 31.0098 31.995 31.0098C32.2613 31.0098 32.5167 30.904 32.705 30.7157C32.7982 30.6224 32.8722 30.5117 32.9227 30.3899C32.9731 30.2681 32.9991 30.1375 32.9991 30.0057C32.9991 29.7394 32.8933 29.484 32.705 29.2957L29.405 26.0057L36.995 26.0057C37.2602 26.0057 37.5146 25.9003 37.7021 25.7128C37.8896 25.5252 37.995 25.2709 37.995 25.0057C37.995 24.7405 37.8896 24.4861 37.7021 24.2986C37.5146 24.111 37.2602 24.0057 36.995 24.0057L29.405 24.0057L32.705 20.7157C32.7987 20.6227 32.8731 20.5121 32.9239 20.3903C32.9747 20.2684 33.0008 20.1377 33.0008 20.0057C33.0008 19.8737 32.9747 19.743 32.9239 19.6211C32.8731 19.4992 32.7987 19.3886 32.705 19.2957C32.612 19.2019 32.5014 19.1276 32.3796 19.0768C32.2577 19.026 32.127 18.9999 31.995 18.9999C31.863 18.9999 31.7323 19.026 31.6104 19.0768C31.4886 19.1276 31.378 19.2019 31.285 19.2957L26.285 24.2957C26.194 24.3908 26.1226 24.5029 26.075 24.6257C25.975 24.8691 25.975 25.1422 26.075 25.3857Z" fill="inherit"/>
	</symbol>
	
</svg>
