<svg width="430" height="230" viewBox="0 0 430 230" fill="none" xmlns="http://www.w3.org/2000/svg">
<path d="M411 136C358.907 178.633 253.401 163.921 218.161 109.707C207.205 92.8533 201.42 67.1226 217.548 55.1224C230.272 45.654 249.909 52.2031 258.949 65.2335C267.99 78.2639 268.73 95.3134 266.976 111.076C262.561 150.762 226.431 207.501 143.931 224.501C58.9313 235.001 -15.7148 70.0001 8.78524 1.4996" stroke="#B9B9B9" stroke-width="2.5" stroke-miterlimit="10" stroke-linecap="round" stroke-dasharray="7 7"/>
<path d="M413.992 146.446C413.484 146.218 413.258 145.617 413.487 145.107L419.842 131L404.371 131.207C403.811 131.215 403.351 130.768 403.344 130.211C403.337 129.653 403.789 129.193 404.343 129.185L421.401 128.957C421.746 128.953 422.071 129.124 422.261 129.414C422.451 129.703 422.478 130.069 422.337 130.384L415.332 145.94C415.249 146.122 415.12 146.268 414.964 146.37C414.685 146.551 414.319 146.593 413.992 146.446Z" fill="#B9B9B9"/>
</svg>
