<svg width="92" height="295" viewBox="0 0 92 295" fill="none" xmlns="http://www.w3.org/2000/svg">
<path d="M1 8.41666C27.8667 -0.252194 29.5854 -2.62144 56.0009 8.41711C76.8193 22.9169 76.3906 31.1347 81.4431 40.4166C87.3693 51.3038 82.1759 64.129 77.8183 76.3719C73.4607 88.6153 65.1422 97.5161 56.0009 102.449C49.6272 105.888 42.3725 107.534 36.0043 104.075C29.6361 100.616 24.7368 90.8454 26.4079 81.6052C27.7308 74.2909 32.7051 69.1465 37.9391 67.2397C43.1732 65.3322 48.6921 66.0754 54.0745 66.8314C62.8654 68.0663 72.5376 69.907 78.3605 79.1732C85.5653 90.6384 92.2739 138.006 90 152.917C88.5443 162.46 80 287.417 44.5 287.417" stroke="#B9B9B9" stroke-width="1.5" stroke-miterlimit="10" stroke-linecap="round" stroke-dasharray="5 5"/>
<path d="M48.8109 282.261C49.0034 282.499 48.8724 282.834 48.5202 283.008L38.776 287.823L47.7179 291.781C48.0415 291.924 48.1118 292.25 47.8743 292.508C47.6367 292.766 47.1786 292.859 46.8583 292.718L36.9987 288.353C36.7995 288.264 36.6882 288.1 36.7048 287.917C36.7214 287.735 36.8641 287.559 37.0809 287.452L47.8244 282.142C47.951 282.081 48.0878 282.047 48.221 282.041C48.4603 282.031 48.687 282.108 48.8109 282.261Z" fill="#B9B9B9"/>
</svg>
