<svg width="280" height="220" viewBox="0 0 280 220" fill="none" xmlns="http://www.w3.org/2000/svg">
<path d="M235.893 1.99999C218.651 12.9125 245.692 83.811 225.176 103.176C204.661 122.541 189.786 113.499 162.143 107.868C149.241 105.241 140.522 130.8 128.198 135.432C117.753 139.358 93.5686 125.169 89.4518 135.541C85.3349 145.913 83.6189 157.647 77.9305 167.247C72.5811 176.275 47.5361 186.72 28.5 177.5" stroke="#B9B9B9" stroke-width="2.5" stroke-miterlimit="10" stroke-linecap="round" stroke-dasharray="7 7"/>
<path d="M30.9889 169.409C31.2098 169.805 31.0655 170.307 30.667 170.528L19.6629 176.638L29.8529 184.026C30.2216 184.293 30.305 184.808 30.0381 185.176C29.7713 185.543 29.2531 185.623 28.8873 185.359L17.652 177.212C17.4256 177.047 17.2967 176.777 17.3139 176.496C17.331 176.216 17.4911 175.963 17.7358 175.826L29.8695 169.089C30.0128 169.011 30.1674 168.979 30.3181 168.987C30.5889 169.003 30.8466 169.153 30.9889 169.409Z" fill="#B9B9B9"/>
</svg>
