<svg width="275" height="196" viewBox="0 0 275 196" fill="none" xmlns="http://www.w3.org/2000/svg">
<path d="M82.596 2C62.7542 33.9721 83.2515 102.688 44.6712 128.707C32.6774 136.797 14.2329 141.273 5.40128 129.814C-1.56706 120.774 2.90591 106.564 12.1719 99.8999C21.4378 93.2356 33.697 92.4953 45.0608 93.5646C73.6715 96.2577 124.596 131.692 144.949 151.979C164.739 171.703 240.096 188.97 263.683 185.959" stroke="#B9B9B9" stroke-width="2.5" stroke-miterlimit="10" stroke-linecap="round" stroke-dasharray="7 7"/>
<path d="M261.776 194.174C261.505 193.804 261.588 193.283 261.96 193.011L272.24 185.503L261.089 179.362C260.685 179.14 260.538 178.634 260.759 178.232C260.981 177.83 261.491 177.685 261.891 177.904L274.186 184.675C274.434 184.812 274.596 185.067 274.615 185.352C274.633 185.636 274.504 185.909 274.275 186.077L262.94 194.356C262.807 194.453 262.656 194.505 262.502 194.515C262.229 194.531 261.951 194.412 261.776 194.174Z" fill="#B9B9B9"/>
</svg>
