<svg width="132" height="149" viewBox="0 0 132 149" fill="none" xmlns="http://www.w3.org/2000/svg">
<path d="M61.5 1.5C46.6057 25.5 61.992 77.0822 33.0316 96.6134C24.0284 102.686 10.183 106.046 3.55347 97.4445C-1.67735 90.6583 1.68032 79.9915 8.63583 74.989C15.5914 69.9864 24.7938 69.4307 33.324 70.2333C54.8008 72.2549 75.4749 81.9564 90.7533 97.1848C105.609 111.99 104.294 141.761 122 139.5" stroke="#B9B9B9" stroke-width="1.5" stroke-miterlimit="10" stroke-linecap="round" stroke-dasharray="5 5"/>
<path d="M118.486 145.094C118.364 144.772 118.527 144.411 118.851 144.289L127.789 140.909L120.946 134.238C120.699 133.997 120.693 133.601 120.934 133.355C121.174 133.108 121.573 133.105 121.818 133.344L129.362 140.699C129.515 140.848 129.581 141.064 129.538 141.274C129.494 141.483 129.346 141.655 129.147 141.731L119.292 145.458C119.176 145.501 119.056 145.509 118.943 145.485C118.742 145.442 118.564 145.301 118.486 145.094Z" fill="#B9B9B9"/>
</svg>
