<svg width="68" height="212" viewBox="0 0 68 212" fill="none" xmlns="http://www.w3.org/2000/svg">
<path d="M1.64448 1.53613C1.64448 18 61.6501 30.1568 65.9999 52.5C70.3497 74.8432 57.7668 81.0825 41.9998 97.5C34.6417 105.162 48.3047 122.135 46.1447 132.536C44.314 141.352 24.2049 151.718 29.5 159C34.7951 166.282 42.0545 172.516 46.1447 180.536C49.9914 188.079 58.5 196 44 205" stroke="#B9B9B9" stroke-width="1.5" stroke-miterlimit="10" stroke-linecap="round" stroke-dasharray="5 5"/>
<path d="M40.3445 199.001C40.7103 199.022 40.9897 199.336 40.9685 199.703L40.3857 209.842L49.8201 206.083C50.1613 205.947 50.5483 206.112 50.6837 206.453C50.8191 206.793 50.6499 207.181 50.312 207.316L39.9097 211.461C39.6993 211.544 39.4597 211.516 39.2758 211.383C39.0919 211.25 38.9884 211.032 39.001 210.806L39.6435 199.626C39.6522 199.495 39.6967 199.375 39.7677 199.277C39.8951 199.099 40.1089 198.988 40.3445 199.001Z" fill="#B9B9B9"/>
</svg>
