<svg width="185" height="55" viewBox="0 0 185 55" fill="none" xmlns="http://www.w3.org/2000/svg">
<path d="M183.772 48.3431C183.772 49.033 183.636 49.7161 183.372 50.3534C183.107 50.9907 182.72 51.5697 182.232 52.0573C181.744 52.5449 181.164 52.9315 180.526 53.195C179.888 53.4585 179.205 53.5938 178.515 53.593H6.48294C5.08861 53.5945 3.75079 53.0422 2.76369 52.0577C1.7766 51.0732 1.22106 49.737 1.21924 48.3431V6.4763C1.22105 5.08172 1.77638 3.74485 2.76328 2.75924C3.75018 1.77363 5.08798 1.21984 6.48294 1.21948H178.514C179.204 1.21948 179.888 1.35546 180.526 1.61966C181.163 1.88386 181.743 2.27109 182.231 2.75925C182.719 3.24741 183.107 3.82693 183.371 4.46471C183.635 5.10249 183.771 5.78603 183.77 6.4763L183.772 48.3431Z" fill="white"/>
<path d="M178.516 54.8149H6.48399C4.76634 54.8145 3.11898 54.1329 1.90339 52.9197C0.687799 51.7065 0.00326822 50.0607 0 48.3436L0 6.47816C0.00254102 4.76011 0.68662 3.11322 1.90217 1.89876C3.11772 0.684303 4.76548 0.0014501 6.48399 0L178.515 0C180.233 0.00217366 181.88 0.685259 183.096 1.89956C184.311 3.11386 184.995 4.76033 184.999 6.47816V48.3436C185.001 51.913 182.088 54.8149 178.516 54.8149Z" fill="#A6A6A6"/>
<path d="M183.772 48.3431C183.772 49.033 183.636 49.7161 183.372 50.3534C183.107 50.9907 182.72 51.5697 182.232 52.0573C181.744 52.5449 181.164 52.9315 180.526 53.195C179.888 53.4585 179.205 53.5938 178.515 53.593H6.48294C5.08861 53.5945 3.75079 53.0422 2.76369 52.0577C1.7766 51.0732 1.22106 49.737 1.21924 48.3431V6.4763C1.22105 5.08172 1.77638 3.74485 2.76328 2.75924C3.75018 1.77363 5.08798 1.21984 6.48294 1.21948H178.514C179.204 1.21948 179.888 1.35546 180.526 1.61966C181.163 1.88386 181.743 2.27109 182.231 2.75925C182.719 3.24741 183.107 3.82693 183.371 4.46471C183.635 5.10249 183.771 5.78603 183.77 6.4763L183.772 48.3431Z" fill="black"/>
<path d="M41.3088 27.1189C41.269 22.701 44.9271 20.5516 45.0944 20.4516C43.0227 17.4318 39.8115 17.0192 38.6831 16.9863C35.9861 16.7026 33.37 18.5997 31.9962 18.5997C30.5949 18.5997 28.4793 17.0137 26.1991 17.0603C23.265 17.1056 20.52 18.8039 19.0145 21.4412C15.9076 26.8187 18.2247 34.7211 21.2014 39.0677C22.6905 41.1978 24.4304 43.5733 26.7078 43.4897C28.9359 43.3993 29.7681 42.071 32.4569 42.071C35.121 42.071 35.9025 43.4897 38.2252 43.4363C40.6164 43.3993 42.1219 41.2979 43.5588 39.1499C45.2795 36.7114 45.9706 34.3071 45.998 34.1837C45.9431 34.1645 41.3554 32.4127 41.3088 27.1189ZM36.9212 14.1269C38.1196 12.6287 38.9395 10.5904 38.7119 8.52194C36.9774 8.5987 34.8083 9.72135 33.5593 11.1867C32.4541 12.4779 31.4669 14.5944 31.722 16.5847C33.6703 16.73 35.6708 15.6019 36.9212 14.1269Z" fill="white"/>
<path d="M178.516 0H86.3701L122.462 54.8149H178.516C180.234 54.8134 181.881 54.1309 183.097 52.9171C184.312 51.7032 184.996 50.057 185 48.3394V6.47816C184.997 4.76022 184.313 3.11354 183.097 1.89916C181.882 0.684781 180.234 0.00181202 178.516 0Z" fill="url(#paint0_linear_111_614)"/>
<path d="M73.5802 43.1835H70.4664L68.7608 37.8252H62.8321L61.2073 43.1835H58.1758L64.051 24.9415H67.679L73.5802 43.1835ZM68.2466 35.5772L66.7041 30.8138C66.5409 30.3272 66.2338 29.1813 65.7841 27.3774H65.7292C65.5482 28.1532 65.2589 29.2992 64.8627 30.8138L63.3462 35.5772H68.2466ZM88.6597 36.4449C88.6597 38.6819 88.0523 40.4502 86.8361 41.7483C85.7475 42.9038 84.3942 43.4809 82.7804 43.4809C81.0377 43.4809 79.7845 42.86 79.0235 41.6153V48.517H76.1003V34.3531C76.1003 32.9481 76.0633 31.5074 75.992 30.0298H78.5628L78.726 32.1147H78.7808C79.7557 30.5438 81.2351 29.7584 83.2205 29.7584C84.7726 29.7584 86.0683 30.3711 87.1049 31.5979C88.1401 32.8275 88.6597 34.4422 88.6597 36.4449ZM85.6817 36.5518C85.6817 35.2715 85.3937 34.216 84.8151 33.384C84.183 32.519 83.3343 32.0859 82.2703 32.0859C81.5491 32.0859 80.8937 32.3271 80.3083 32.8028C79.7214 33.2825 79.3375 33.909 79.1579 34.6848C79.0777 34.975 79.0322 35.2736 79.0222 35.5744V37.769C79.0222 38.7244 79.3156 39.5318 79.9024 40.1925C80.4893 40.8505 81.2516 41.1808 82.1894 41.1808C83.2904 41.1808 84.1474 40.7545 84.7603 39.9087C85.3745 39.0603 85.6817 37.9417 85.6817 36.5518ZM103.793 36.4449C103.793 38.6819 103.185 40.4502 101.969 41.7483C100.879 42.9038 99.5271 43.4809 97.912 43.4809C96.1693 43.4809 94.9161 42.86 94.1551 41.6153V48.517H91.2319V34.3531C91.2319 32.9481 91.1949 31.5074 91.1236 30.0298H93.6944L93.8576 32.1147H93.9124C94.8859 30.5438 96.3654 29.7584 98.3521 29.7584C99.9028 29.7584 101.199 30.3711 102.238 31.5979C103.272 32.8275 103.793 34.4422 103.793 36.4449ZM100.813 36.5518C100.813 35.2715 100.524 34.216 99.9453 33.384C99.3132 32.519 98.4673 32.0859 97.4033 32.0859C96.6821 32.0859 96.0267 32.3271 95.4385 32.8028C94.8517 33.2825 94.4691 33.909 94.2895 34.6848C94.2004 35.0467 94.1524 35.3414 94.1524 35.5744V37.769C94.1524 38.7244 94.4472 39.5318 95.0313 40.1925C95.6181 40.8491 96.3804 41.1808 97.321 41.1808C98.4234 41.1808 99.2803 40.7545 99.8919 39.9087C100.506 39.0603 100.813 37.9417 100.813 36.5518ZM120.712 38.0665C120.712 39.6195 120.169 40.882 119.09 41.8566C117.903 42.9203 116.245 43.4535 114.12 43.4535C112.156 43.4535 110.582 43.0752 109.395 42.3172L110.071 39.8813C111.353 40.6407 112.761 41.0191 114.294 41.0191C115.396 41.0191 116.253 40.7696 116.865 40.2747C117.478 39.7785 117.788 39.1151 117.788 38.2872C117.788 37.5456 117.531 36.9246 117.028 36.4188C116.522 35.9144 115.686 35.4442 114.511 35.0124C111.316 33.8213 109.717 32.079 109.717 29.7871C109.717 28.2903 110.282 27.0648 111.409 26.1067C112.536 25.1499 114.031 24.6715 115.89 24.6715C117.55 24.6715 118.934 24.9607 120.032 25.5378L119.299 27.9202C118.265 27.3609 117.098 27.0813 115.793 27.0813C114.762 27.0813 113.953 27.3349 113.374 27.8393C112.887 28.2903 112.64 28.84 112.64 29.4924C112.64 30.2121 112.922 30.8097 113.481 31.2785C113.966 31.7103 114.852 32.1805 116.133 32.6849C117.704 33.3182 118.858 34.0557 119.597 34.9028C120.342 35.7499 120.712 36.8067 120.712 38.0665ZM130.402 32.223H127.18V38.6093C127.18 40.2336 127.747 41.0437 128.885 41.0437C129.408 41.0437 129.841 40.9999 130.184 40.908L130.265 43.1273C129.689 43.3425 128.931 43.4508 127.991 43.4508C126.837 43.4508 125.935 43.0985 125.283 42.3939C124.635 41.6893 124.309 40.5091 124.309 38.8478V32.2175H122.389V30.0243H124.309V27.6159L127.18 26.7496V30.0243H130.402V32.223ZM144.911 36.4983C144.911 38.5202 144.332 40.1802 143.178 41.4783C141.97 42.8147 140.363 43.4809 138.36 43.4809C136.427 43.4809 134.889 42.8408 133.743 41.5619C132.597 40.2802 132.024 38.6655 132.024 36.7176C132.024 34.6793 132.616 33.0098 133.797 31.7117C134.98 30.4122 136.573 29.7625 138.576 29.7625C140.507 29.7625 142.058 30.404 143.231 31.6843C144.353 32.9262 144.911 34.5299 144.911 36.4983ZM141.881 36.5655C141.881 35.3606 141.62 34.3271 141.098 33.4621C140.485 32.4176 139.607 31.8954 138.471 31.8954C137.3 31.8954 136.402 32.4176 135.79 33.4621C135.267 34.3271 135.006 35.3784 135.006 36.6203C135.006 37.8266 135.267 38.8629 135.79 39.7251C136.422 40.7696 137.304 41.2918 138.446 41.2918C139.564 41.2918 140.44 40.7586 141.073 39.699C141.611 38.8135 141.881 37.7731 141.881 36.5655ZM154.417 32.5999C154.113 32.545 153.804 32.518 153.495 32.519C152.467 32.519 151.672 32.9056 151.112 33.6842C150.627 34.3696 150.383 35.2359 150.383 36.2817V43.1835H147.46V34.1722C147.462 32.7914 147.434 31.4107 147.375 30.0311H149.921L150.028 32.5478H150.109C150.419 31.6829 150.904 30.9852 151.57 30.4629C152.18 30.0066 152.921 29.7594 153.683 29.7584C153.953 29.7584 154.197 29.7775 154.414 29.8118L154.417 32.5999ZM167.49 35.9843C167.498 36.4286 167.462 36.8725 167.383 37.3098H158.614C158.647 38.6093 159.072 39.6044 159.886 40.2898C160.625 40.9012 161.581 41.2082 162.755 41.2082C164.053 41.2082 165.238 41.0026 166.303 40.5873L166.761 42.6146C165.516 43.1574 164.046 43.4275 162.35 43.4275C160.31 43.4275 158.708 42.8271 157.543 41.629C156.38 40.4296 155.798 38.8176 155.798 36.7985C155.798 34.8164 156.339 33.1647 157.424 31.8474C158.559 30.441 160.093 29.7378 162.024 29.7378C163.92 29.7378 165.356 30.441 166.33 31.8474C167.102 32.9618 167.49 34.3435 167.49 35.9843ZM164.703 35.2263C164.724 34.3586 164.532 33.6115 164.135 32.9796C163.629 32.1654 162.851 31.7596 161.807 31.7596C160.851 31.7596 160.073 32.1558 159.48 32.9508C158.994 33.5827 158.704 34.3421 158.615 35.2235L164.703 35.2263Z" fill="white"/>
<path d="M61.9881 18.4929C61.1751 18.4929 60.4717 18.4531 59.8862 18.386V9.56657C60.7051 9.44012 61.5325 9.37779 62.3611 9.38015C65.7135 9.38015 67.2573 11.0292 67.2573 13.7172C67.2573 16.8178 65.4337 18.4929 61.9881 18.4929ZM62.479 10.511C62.0265 10.511 61.6412 10.5384 61.3218 10.6042V17.3086C61.4945 17.336 61.8263 17.3483 62.2925 17.3483C64.489 17.3483 65.7395 16.0982 65.7395 13.757C65.7395 11.6693 64.6083 10.511 62.479 10.511ZM72.0686 18.5601C70.1792 18.5601 68.9548 17.1496 68.9548 15.2346C68.9548 13.2388 70.2052 11.816 72.1755 11.816C74.0375 11.816 75.2893 13.1593 75.2893 15.1291C75.2893 17.1496 73.9991 18.5601 72.0686 18.5601ZM72.1234 12.866C71.0855 12.866 70.4205 13.8365 70.4205 15.1935C70.4205 16.5245 71.0992 17.495 72.1097 17.495C73.1202 17.495 73.7989 16.4573 73.7989 15.1661C73.7989 13.8502 73.1339 12.866 72.1234 12.866ZM86.0635 11.9489L84.0411 18.4134H82.7235L81.8857 15.6061C81.6774 14.9194 81.504 14.2226 81.3661 13.5184H81.3386C81.2331 14.223 81.0329 14.9289 80.8204 15.6061L79.9291 18.4134H78.5978L76.6947 11.9489H78.1714L78.9035 15.0222C79.0763 15.7541 79.2216 16.445 79.3423 17.0975H79.3697C79.4753 16.5533 79.6481 15.8734 79.9017 15.0359L80.8204 11.9503H81.9913L82.8702 14.9701C83.0827 15.702 83.2555 16.4203 83.3898 17.0988H83.4282C83.5214 16.434 83.6682 15.7281 83.867 14.9701L84.6526 11.9503L86.0635 11.9489ZM93.5086 18.4134H92.0717V14.7014C92.0717 13.5582 91.6329 12.9852 90.7678 12.9852C89.9163 12.9852 89.3308 13.7172 89.3308 14.5684V18.4134H87.8939V13.7967C87.8939 13.2251 87.8802 12.6124 87.8405 11.9476H89.1046L89.1718 12.9455H89.2116C89.5982 12.2546 90.3825 11.816 91.2614 11.816C92.6188 11.816 93.51 12.8536 93.51 14.5424L93.5086 18.4134ZM97.4711 18.4134H96.0328V8.98264H97.4711V18.4134ZM102.71 18.5601C100.822 18.5601 99.5964 17.1496 99.5964 15.2346C99.5964 13.2388 100.847 11.816 102.816 11.816C104.679 11.816 105.93 13.1593 105.93 15.1291C105.931 17.1496 104.639 18.5601 102.71 18.5601ZM102.764 12.866C101.726 12.866 101.061 13.8365 101.061 15.1935C101.061 16.5245 101.741 17.495 102.749 17.495C103.76 17.495 104.438 16.4573 104.438 15.1661C104.439 13.8502 103.776 12.866 102.764 12.866ZM111.595 18.4134L111.491 17.6691H111.452C111.014 18.2681 110.373 18.5601 109.562 18.5601C108.403 18.5601 107.58 17.7486 107.58 16.6575C107.58 15.0619 108.964 14.2367 111.359 14.2367V14.1175C111.359 13.2662 110.908 12.8399 110.017 12.8399C109.379 12.8399 108.82 13.0003 108.328 13.3197L108.036 12.3752C108.633 12.0024 109.379 11.816 110.255 11.816C111.945 11.816 112.797 12.707 112.797 14.4903V16.8713C112.797 17.5238 112.826 18.0296 112.891 18.4148L111.595 18.4134ZM111.398 15.1935C109.802 15.1935 109.001 15.58 109.001 16.4971C109.001 17.1756 109.414 17.5073 109.987 17.5073C110.717 17.5073 111.398 16.9494 111.398 16.1914V15.1935ZM119.775 18.4134L119.708 17.3757H119.668C119.255 18.1598 118.562 18.5601 117.592 18.5601C116.033 18.5601 114.879 17.1893 114.879 15.2607C114.879 13.2388 116.076 11.8146 117.71 11.8146C118.575 11.8146 119.188 12.1066 119.534 12.6933H119.562V8.98264H121.001V16.6712C121.001 17.2962 121.016 17.8815 121.054 18.4134H119.775ZM119.562 14.6096C119.562 13.7049 118.963 12.9331 118.049 12.9331C116.983 12.9331 116.332 13.8776 116.332 15.2072C116.332 16.5108 117.008 17.4031 118.02 17.4031C118.924 17.4031 119.562 16.6177 119.562 15.687V14.6096ZM130.12 18.5601C128.232 18.5601 127.008 17.1496 127.008 15.2346C127.008 13.2388 128.258 11.816 130.227 11.816C132.09 11.816 133.341 13.1593 133.341 15.1291C133.342 17.1496 132.052 18.5601 130.12 18.5601ZM130.174 12.866C129.137 12.866 128.472 13.8365 128.472 15.1935C128.472 16.5245 129.151 17.495 130.16 17.495C131.172 17.495 131.849 16.4573 131.849 15.1661C131.852 13.8502 131.187 12.866 130.174 12.866ZM141.068 18.4134H139.63V14.7014C139.63 13.5582 139.191 12.9852 138.326 12.9852C137.475 12.9852 136.891 13.7172 136.891 14.5684V18.4134H135.452V13.7967C135.452 13.2251 135.439 12.6124 135.399 11.9476H136.663L136.73 12.9455H136.77C137.155 12.2546 137.941 11.8146 138.818 11.8146C140.176 11.8146 141.068 12.8523 141.068 14.541V18.4134ZM150.736 13.0263H149.155V16.1654C149.155 16.9645 149.432 17.3634 149.992 17.3634C150.245 17.3634 150.458 17.336 150.629 17.2962L150.669 18.3873C150.391 18.4943 150.018 18.5477 149.554 18.5477C148.422 18.5477 147.744 17.9227 147.744 16.286V13.0263H146.801V11.9489H147.744V10.7646L149.155 10.3383V11.9476H150.736V13.0263ZM158.343 18.4134H156.907V14.7288C156.907 13.5719 156.47 12.9866 155.604 12.9866C154.859 12.9866 154.165 13.4924 154.165 14.5163V18.4134H152.73V8.98264H154.165V12.866H154.194C154.646 12.1614 155.302 11.8146 156.138 11.8146C157.507 11.8146 158.343 12.8783 158.343 14.5684V18.4134ZM166.136 15.5266H161.824C161.852 16.7507 162.662 17.4415 163.862 17.4415C164.499 17.4415 165.086 17.3346 165.604 17.1358L165.828 18.1338C165.216 18.3997 164.497 18.5326 163.659 18.5326C161.636 18.5326 160.439 17.2551 160.439 15.2744C160.439 13.2923 161.665 11.8023 163.497 11.8023C165.149 11.8023 166.186 13.0263 166.186 14.8755C166.195 15.0937 166.178 15.3123 166.136 15.5266ZM164.819 14.5026C164.819 13.5047 164.316 12.8002 163.397 12.8002C162.572 12.8002 161.919 13.5184 161.826 14.5026H164.819Z" fill="white"/>
<defs>
<linearGradient id="paint0_linear_111_614" x1="135.683" y1="54.9604" x2="135.683" y2="-142.728" gradientUnits="userSpaceOnUse">
<stop stop-color="#1A1A1A" stop-opacity="0.1"/>
<stop offset="0.123" stop-color="#212121" stop-opacity="0.151"/>
<stop offset="0.308" stop-color="#353535" stop-opacity="0.227"/>
<stop offset="0.532" stop-color="#575757" stop-opacity="0.318"/>
<stop offset="0.783" stop-color="#858585" stop-opacity="0.421"/>
<stop offset="1" stop-color="#B3B3B3" stop-opacity="0.51"/>
</linearGradient>
</defs>
</svg>
