<svg width="489" height="211" viewBox="0 0 489 211" fill="none" xmlns="http://www.w3.org/2000/svg">
<path d="M486.081 130.734C433.988 173.367 345.47 144.92 310.229 90.7063C299.273 73.8524 293.489 48.1216 309.616 36.1214C322.34 26.653 341.977 33.2022 351.018 46.2326C360.059 59.263 360.798 76.3125 359.045 92.0753C354.63 131.762 318.5 188.5 236 205.5C151 216 60.8946 87.4664 19.4999 16.9998" stroke="#B9B9B9" stroke-width="2.5" stroke-miterlimit="10" stroke-linecap="round" stroke-dasharray="7 7"/>
<path d="M27.9374 15.1019C27.6645 15.5881 27.0464 15.7594 26.5585 15.485L13.0759 7.8947L11.899 23.3222C11.857 23.8802 11.3709 24.2985 10.8148 24.2557C10.2588 24.213 9.84141 23.7211 9.88244 23.169L11.1807 6.15847C11.2074 5.81484 11.4076 5.50678 11.7129 5.34333C12.0183 5.17987 12.3852 5.18563 12.6862 5.3538L27.553 13.7224C27.7274 13.8216 27.8606 13.963 27.9485 14.1273C28.1043 14.4215 28.113 14.7893 27.9374 15.1019Z" fill="#B9B9B9"/>
</svg>
