<svg width="164" height="316" viewBox="0 0 164 316" fill="none" xmlns="http://www.w3.org/2000/svg">
<path d="M43.4999 302.5C21.4999 263 50.8155 207.858 90.8396 190.997C103.282 185.755 120.98 184.986 126.998 197.072C131.747 206.608 125.086 218.813 115.398 223.242C105.711 227.672 94.3516 226.137 84.139 223.107C58.4268 215.476 41.9999 206.5 20.5654 176.419C-0.000259451 143 8.99988 35.4999 60.4996 16.5001" stroke="#B9B9B9" stroke-width="1.5" stroke-miterlimit="10" stroke-linecap="round" stroke-dasharray="5 5"/>
<path d="M61.1584 23.022C60.8694 22.7838 60.8295 22.3548 61.0689 22.0649L67.6875 14.0527L57.6282 11.4431C57.2643 11.349 57.0454 10.978 57.1397 10.6155C57.234 10.253 57.6087 10.0354 57.9689 10.1281L69.0603 13.0059C69.2843 13.0644 69.4642 13.2333 69.536 13.4546C69.6078 13.6758 69.5604 13.9177 69.4135 14.0968L62.116 22.9316C62.0297 23.0351 61.9205 23.1064 61.8014 23.145C61.5884 23.2131 61.3442 23.1752 61.1584 23.022Z" fill="#B9B9B9"/>
</svg>
