<svg width="297" height="232" viewBox="0 0 297 232" fill="none" xmlns="http://www.w3.org/2000/svg">
<path d="M287.5 151C266.476 100.792 185.138 151.212 157.233 107.259C152.974 100.551 149.205 92.9766 149.828 85.0995C150.452 77.2225 155.458 58.3229 167.779 63.8787C185.21 73.4801 157.726 96.296 144.527 98.0415C131.328 99.7869 118.434 93.1093 107.548 85.3718C96.6607 77.6344 86.4254 68.468 73.8419 63.9943C61.7934 59.7112 21.6612 80.0995 13.8321 89.8227" stroke="#B9B9B9" stroke-width="2.5" stroke-miterlimit="10" stroke-linecap="round" stroke-dasharray="7 7"/>
<path d="M20.882 94.4541C20.7175 94.006 20.2178 93.774 19.7684 93.935L7.3271 98.3861L8.44414 85.2531C8.48455 84.7785 8.13097 84.3569 7.65514 84.3138C7.17931 84.2707 6.75857 84.6242 6.7172 85.0934L5.48519 99.5742C5.46108 99.8663 5.58795 100.154 5.82342 100.335C6.05888 100.516 6.37054 100.564 6.64789 100.465L20.366 95.5565C20.5272 95.4979 20.6595 95.398 20.7559 95.2733C20.9303 95.0503 20.9876 94.743 20.882 94.4541Z" fill="#B9B9B9"/>
</svg>
