<svg width="98" height="256" viewBox="0 0 98 256" fill="none" xmlns="http://www.w3.org/2000/svg">
<path d="M69.5 254.5C100.893 214.938 33.7948 172.204 57.0238 129.849C60.5688 123.385 65.0373 116.931 71.7181 113.911C78.3988 110.892 96 106.5 97 119C97 137.465 66.1538 125.342 58.8267 115.396C51.4995 105.45 51.1547 91.9826 52.5695 79.6711C53.9843 67.3595 56.852 54.9378 54.8548 42.7084C52.9421 30.9991 18.4069 7.5101 7 5.5" stroke="#B9B9B9" stroke-width="1.5" stroke-miterlimit="10" stroke-linecap="round" stroke-dasharray="5 5"/>
<path d="M9.32861 12.7588C9.56366 12.4883 9.53524 12.0757 9.26662 11.8385L1.83358 5.2698L10.8738 1.24763C11.2006 1.10228 11.3498 0.71708 11.2058 0.388581C11.0618 0.060082 10.6769 -0.088525 10.3534 0.0542156L0.385205 4.48896C0.184382 4.57891 0.0410346 4.76661 0.0074565 4.98691C-0.0261216 5.20721 0.0552419 5.42951 0.22055 5.57616L8.41683 12.8188C8.51369 12.9035 8.62735 12.9543 8.74422 12.9726C8.95409 13.0065 9.17686 12.9328 9.32861 12.7588Z" fill="#B9B9B9"/>
</svg>
